G75*
G70*
%OFA0B0*%
%FSLAX24Y24*%
%IPPOS*%
%LPD*%
%AMOC8*
5,1,8,0,0,1.08239X$1,22.5*
%
%ADD10C,0.0000*%
%ADD11R,0.0660X0.0660*%
%ADD12C,0.0660*%
%ADD13C,0.0740*%
%ADD14R,0.0740X0.0740*%
%ADD15C,0.0100*%
%ADD16C,0.0400*%
D10*
X000101Y000101D02*
X000101Y019097D01*
X025971Y019097D01*
X025971Y000101D01*
X000101Y000101D01*
D11*
X009601Y013101D03*
D12*
X010601Y013101D03*
X011601Y013101D03*
X012601Y013101D03*
X013601Y013101D03*
X014601Y013101D03*
X015601Y013101D03*
X016601Y013101D03*
X016601Y016101D03*
X015601Y016101D03*
X014601Y016101D03*
X013601Y016101D03*
X012601Y016101D03*
X011601Y016101D03*
X010601Y016101D03*
X009601Y016101D03*
D13*
X005101Y016101D03*
X005101Y015101D03*
X005101Y014101D03*
X005101Y013101D03*
X005101Y012101D03*
X010601Y007601D03*
X011601Y007601D03*
X012601Y007601D03*
X013601Y007601D03*
X014601Y007601D03*
X015601Y007601D03*
X016601Y007601D03*
X016601Y004601D03*
X015601Y004601D03*
X014601Y004601D03*
X013601Y004601D03*
X012601Y004601D03*
X011601Y004601D03*
X010601Y004601D03*
X010601Y002601D03*
X011601Y002601D03*
X012601Y002601D03*
X013601Y002601D03*
X014601Y002601D03*
X015601Y002601D03*
X016601Y002601D03*
X019601Y012101D03*
X019601Y013101D03*
X019601Y014101D03*
X019601Y015101D03*
X019601Y016101D03*
X019601Y017101D03*
X019601Y018101D03*
X005101Y018101D03*
X005101Y017101D03*
D14*
X005101Y011101D03*
X009601Y002601D03*
X019601Y011101D03*
D15*
X019601Y012101D02*
X020101Y012601D01*
X020101Y016601D01*
X019601Y017101D01*
X019601Y014101D02*
X017601Y014101D01*
X015601Y016101D01*
X015601Y016601D01*
X015101Y017101D01*
X008601Y017101D01*
X006601Y014101D01*
X005101Y014101D01*
X004601Y012601D02*
X005101Y012101D01*
X004601Y012601D02*
X004601Y016601D01*
X005101Y017101D01*
X010101Y015101D02*
X010601Y015601D01*
X010601Y016101D01*
X011601Y016101D02*
X011601Y015601D01*
X011101Y015101D01*
X011101Y009101D01*
X011601Y008601D01*
X011601Y007601D01*
X012601Y007601D02*
X012601Y008601D01*
X012101Y009101D01*
X012101Y015101D01*
X012601Y015601D01*
X012601Y016101D01*
X010101Y015101D02*
X010101Y009101D01*
X010601Y008601D01*
X010601Y007601D01*
X013601Y007601D02*
X013601Y010601D01*
X012601Y011601D01*
X012601Y013101D01*
X013601Y013101D02*
X013601Y011601D01*
X014601Y010601D01*
X014601Y007601D01*
X015601Y007601D02*
X015601Y010601D01*
X014601Y011601D01*
X014601Y013101D01*
X015601Y013101D02*
X015601Y011601D01*
X016601Y010601D01*
X016601Y007601D01*
X016601Y004601D02*
X016601Y002601D01*
X015601Y002601D02*
X015601Y004601D01*
X014601Y004601D02*
X014601Y002601D01*
X013601Y002601D02*
X013601Y004601D01*
X012601Y004601D02*
X012601Y002601D01*
X011601Y002601D02*
X011601Y004601D01*
X010601Y004601D02*
X010601Y002601D01*
D16*
X009601Y002601D02*
X003601Y007101D01*
X003601Y017601D01*
X005101Y018101D01*
X019601Y018101D01*
X019601Y011101D02*
X018101Y011101D01*
X017601Y010601D01*
X017601Y006601D01*
X017101Y006101D01*
X010601Y006101D01*
X009601Y007101D01*
X009601Y012101D01*
X008601Y011101D01*
X005101Y011101D01*
X009601Y012101D02*
X009601Y013101D01*
X009601Y016101D01*
M02*
