%
M48
M72
T01C0.0354
T02C0.0400
T03C0.0440
%
T01
X10601Y4601
X11601Y4601
X12601Y4601
X13601Y4601
X14601Y4601
X15601Y4601
X16601Y4601
X16601Y7601
X15601Y7601
X14601Y7601
X13601Y7601
X12601Y7601
X11601Y7601
X10601Y7601
T02
X9601Y2601
X10601Y2601
X11601Y2601
X12601Y2601
X13601Y2601
X14601Y2601
X15601Y2601
X16601Y2601
X19601Y11101
X19601Y12101
X19601Y13101
X19601Y14101
X19601Y15101
X19601Y16101
X19601Y17101
X19601Y18101
X5101Y18101
X5101Y17101
X5101Y16101
X5101Y15101
X5101Y14101
X5101Y13101
X5101Y12101
X5101Y11101
T03
X9601Y13101
X10601Y13101
X11601Y13101
X12601Y13101
X13601Y13101
X14601Y13101
X15601Y13101
X16601Y13101
X16601Y16101
X15601Y16101
X14601Y16101
X13601Y16101
X12601Y16101
X11601Y16101
X10601Y16101
X9601Y16101
M30
