G75*
G70*
%OFA0B0*%
%FSLAX24Y24*%
%IPPOS*%
%LPD*%
%AMOC8*
5,1,8,0,0,1.08239X$1,22.5*
%
%ADD10R,0.0660X0.0660*%
%ADD11C,0.0660*%
%ADD12C,0.0740*%
%ADD13R,0.0740X0.0740*%
%ADD14C,0.0400*%
%ADD15C,0.0100*%
D10*
X009601Y013101D03*
D11*
X010601Y013101D03*
X011601Y013101D03*
X012601Y013101D03*
X013601Y013101D03*
X014601Y013101D03*
X015601Y013101D03*
X016601Y013101D03*
X016601Y016101D03*
X015601Y016101D03*
X014601Y016101D03*
X013601Y016101D03*
X012601Y016101D03*
X011601Y016101D03*
X010601Y016101D03*
X009601Y016101D03*
D12*
X005101Y016101D03*
X005101Y015101D03*
X005101Y014101D03*
X005101Y013101D03*
X005101Y012101D03*
X010601Y007601D03*
X011601Y007601D03*
X012601Y007601D03*
X013601Y007601D03*
X014601Y007601D03*
X015601Y007601D03*
X016601Y007601D03*
X016601Y004601D03*
X015601Y004601D03*
X014601Y004601D03*
X013601Y004601D03*
X012601Y004601D03*
X011601Y004601D03*
X010601Y004601D03*
X010601Y002601D03*
X011601Y002601D03*
X012601Y002601D03*
X013601Y002601D03*
X014601Y002601D03*
X015601Y002601D03*
X016601Y002601D03*
X019601Y012101D03*
X019601Y013101D03*
X019601Y014101D03*
X019601Y015101D03*
X019601Y016101D03*
X019601Y017101D03*
X019601Y018101D03*
X005101Y018101D03*
X005101Y017101D03*
D13*
X009601Y002601D03*
X005101Y011101D03*
X019601Y011101D03*
D14*
X019601Y012101D02*
X017101Y012101D01*
X017101Y011101D01*
X018101Y010101D01*
X018101Y005101D01*
X017601Y004601D01*
X016601Y004601D01*
X015601Y004601D01*
X014601Y004601D01*
X013601Y004601D01*
X012601Y004601D01*
X011601Y004601D01*
X010601Y004601D01*
X005101Y012101D02*
X017101Y012101D01*
X016601Y012601D01*
X016601Y013101D01*
D15*
X017601Y015101D02*
X019601Y015101D01*
X019601Y016101D02*
X021101Y016101D01*
X021601Y015601D01*
X021601Y015101D01*
X021101Y014601D01*
X012101Y014601D01*
X011601Y014101D01*
X011601Y013101D01*
X008601Y015601D02*
X007601Y015101D01*
X005101Y015101D01*
X005101Y016101D02*
X007601Y016101D01*
X008601Y016601D01*
X014101Y016601D01*
X014601Y016101D01*
X016601Y016101D02*
X017101Y015601D01*
X008601Y015601D01*
X017101Y015601D02*
X017601Y015101D01*
M02*
