G75*
G70*
%OFA0B0*%
%FSLAX24Y24*%
%IPPOS*%
%LPD*%
%AMOC8*
5,1,8,0,0,1.08239X$1,22.5*
%
%ADD10C,0.0110*%
%ADD11C,0.0080*%
%ADD12C,0.0010*%
%ADD13C,0.0060*%
D10*
X001155Y001253D02*
X001253Y001155D01*
X001450Y001155D01*
X001549Y001253D01*
X001549Y001746D01*
X001800Y001647D02*
X001800Y001253D01*
X001898Y001155D01*
X002095Y001155D01*
X002193Y001253D01*
X002444Y001253D02*
X002543Y001155D01*
X002838Y001155D01*
X002838Y001549D01*
X003089Y001549D02*
X003384Y001549D01*
X003482Y001450D01*
X003482Y001253D01*
X003384Y001155D01*
X003089Y001155D01*
X003089Y001746D01*
X002444Y001549D02*
X002444Y001253D01*
X002193Y001647D02*
X002095Y001746D01*
X001898Y001746D01*
X001800Y001647D01*
X001155Y001746D02*
X001155Y001253D01*
X003733Y001253D02*
X003733Y001450D01*
X003832Y001549D01*
X004028Y001549D01*
X004127Y001450D01*
X004127Y001352D01*
X003733Y001352D01*
X003733Y001253D02*
X003832Y001155D01*
X004028Y001155D01*
X004378Y001057D02*
X004771Y001057D01*
X005219Y001155D02*
X005416Y001549D01*
X005667Y001647D02*
X005765Y001746D01*
X005962Y001746D01*
X006061Y001647D01*
X006061Y001549D01*
X005667Y001155D01*
X006061Y001155D01*
X006311Y001057D02*
X006705Y001057D01*
X006956Y001155D02*
X007350Y001155D01*
X007600Y001253D02*
X007600Y001450D01*
X007699Y001549D01*
X007896Y001549D01*
X007994Y001450D01*
X007994Y001352D01*
X007600Y001352D01*
X007600Y001253D02*
X007699Y001155D01*
X007896Y001155D01*
X008245Y001253D02*
X008245Y001450D01*
X008343Y001549D01*
X008639Y001549D01*
X008639Y001746D02*
X008639Y001155D01*
X008343Y001155D01*
X008245Y001253D01*
X006956Y001155D02*
X006956Y001746D01*
X005219Y001155D02*
X005022Y001549D01*
X004049Y003655D02*
X004049Y004246D01*
X003852Y004049D01*
X003655Y004246D01*
X003655Y003655D01*
X006300Y004450D02*
X006693Y004450D01*
X006496Y004647D02*
X006496Y004253D01*
X007589Y004155D02*
X007982Y004746D01*
X008878Y004450D02*
X009271Y004450D01*
X011655Y004246D02*
X011655Y003655D01*
X011655Y003950D02*
X011852Y003950D01*
X011655Y004246D02*
X012049Y004246D01*
D11*
X009533Y006600D02*
X009535Y006701D01*
X009543Y006803D01*
X009555Y006903D01*
X009573Y007003D01*
X009595Y007102D01*
X009622Y007200D01*
X009654Y007296D01*
X009690Y007391D01*
X009731Y007484D01*
X009777Y007574D01*
X009827Y007663D01*
X009881Y007748D01*
X009940Y007831D01*
X010002Y007911D01*
X010068Y007988D01*
X010138Y008062D01*
X010212Y008132D01*
X010289Y008198D01*
X010369Y008260D01*
X010452Y008319D01*
X010537Y008373D01*
X010626Y008423D01*
X010716Y008469D01*
X010809Y008510D01*
X010904Y008546D01*
X011000Y008578D01*
X011098Y008605D01*
X011197Y008627D01*
X011297Y008645D01*
X011397Y008657D01*
X011499Y008665D01*
X011600Y008667D01*
X011701Y008665D01*
X011803Y008657D01*
X011903Y008645D01*
X012003Y008627D01*
X012102Y008605D01*
X012200Y008578D01*
X012296Y008546D01*
X012391Y008510D01*
X012484Y008469D01*
X012574Y008423D01*
X012663Y008373D01*
X012748Y008319D01*
X012831Y008260D01*
X012911Y008198D01*
X012988Y008132D01*
X013062Y008062D01*
X013132Y007988D01*
X013198Y007911D01*
X013260Y007831D01*
X013319Y007748D01*
X013373Y007663D01*
X013423Y007574D01*
X013469Y007484D01*
X013510Y007391D01*
X013546Y007296D01*
X013578Y007200D01*
X013605Y007102D01*
X013627Y007003D01*
X013645Y006903D01*
X013657Y006803D01*
X013665Y006701D01*
X013667Y006600D01*
X013665Y006499D01*
X013657Y006397D01*
X013645Y006297D01*
X013627Y006197D01*
X013605Y006098D01*
X013578Y006000D01*
X013546Y005904D01*
X013510Y005809D01*
X013469Y005716D01*
X013423Y005626D01*
X013373Y005537D01*
X013319Y005452D01*
X013260Y005369D01*
X013198Y005289D01*
X013132Y005212D01*
X013062Y005138D01*
X012988Y005068D01*
X012911Y005002D01*
X012831Y004940D01*
X012748Y004881D01*
X012663Y004827D01*
X012574Y004777D01*
X012484Y004731D01*
X012391Y004690D01*
X012296Y004654D01*
X012200Y004622D01*
X012102Y004595D01*
X012003Y004573D01*
X011903Y004555D01*
X011803Y004543D01*
X011701Y004535D01*
X011600Y004533D01*
X011499Y004535D01*
X011397Y004543D01*
X011297Y004555D01*
X011197Y004573D01*
X011098Y004595D01*
X011000Y004622D01*
X010904Y004654D01*
X010809Y004690D01*
X010716Y004731D01*
X010626Y004777D01*
X010537Y004827D01*
X010452Y004881D01*
X010369Y004940D01*
X010289Y005002D01*
X010212Y005068D01*
X010138Y005138D01*
X010068Y005212D01*
X010002Y005289D01*
X009940Y005369D01*
X009881Y005452D01*
X009827Y005537D01*
X009777Y005626D01*
X009731Y005716D01*
X009690Y005809D01*
X009654Y005904D01*
X009622Y006000D01*
X009595Y006098D01*
X009573Y006197D01*
X009555Y006297D01*
X009543Y006397D01*
X009535Y006499D01*
X009533Y006600D01*
X008600Y005850D02*
X008600Y007350D01*
X001533Y006600D02*
X001535Y006701D01*
X001543Y006803D01*
X001555Y006903D01*
X001573Y007003D01*
X001595Y007102D01*
X001622Y007200D01*
X001654Y007296D01*
X001690Y007391D01*
X001731Y007484D01*
X001777Y007574D01*
X001827Y007663D01*
X001881Y007748D01*
X001940Y007831D01*
X002002Y007911D01*
X002068Y007988D01*
X002138Y008062D01*
X002212Y008132D01*
X002289Y008198D01*
X002369Y008260D01*
X002452Y008319D01*
X002537Y008373D01*
X002626Y008423D01*
X002716Y008469D01*
X002809Y008510D01*
X002904Y008546D01*
X003000Y008578D01*
X003098Y008605D01*
X003197Y008627D01*
X003297Y008645D01*
X003397Y008657D01*
X003499Y008665D01*
X003600Y008667D01*
X003701Y008665D01*
X003803Y008657D01*
X003903Y008645D01*
X004003Y008627D01*
X004102Y008605D01*
X004200Y008578D01*
X004296Y008546D01*
X004391Y008510D01*
X004484Y008469D01*
X004574Y008423D01*
X004663Y008373D01*
X004748Y008319D01*
X004831Y008260D01*
X004911Y008198D01*
X004988Y008132D01*
X005062Y008062D01*
X005132Y007988D01*
X005198Y007911D01*
X005260Y007831D01*
X005319Y007748D01*
X005373Y007663D01*
X005423Y007574D01*
X005469Y007484D01*
X005510Y007391D01*
X005546Y007296D01*
X005578Y007200D01*
X005605Y007102D01*
X005627Y007003D01*
X005645Y006903D01*
X005657Y006803D01*
X005665Y006701D01*
X005667Y006600D01*
X005665Y006499D01*
X005657Y006397D01*
X005645Y006297D01*
X005627Y006197D01*
X005605Y006098D01*
X005578Y006000D01*
X005546Y005904D01*
X005510Y005809D01*
X005469Y005716D01*
X005423Y005626D01*
X005373Y005537D01*
X005319Y005452D01*
X005260Y005369D01*
X005198Y005289D01*
X005132Y005212D01*
X005062Y005138D01*
X004988Y005068D01*
X004911Y005002D01*
X004831Y004940D01*
X004748Y004881D01*
X004663Y004827D01*
X004574Y004777D01*
X004484Y004731D01*
X004391Y004690D01*
X004296Y004654D01*
X004200Y004622D01*
X004102Y004595D01*
X004003Y004573D01*
X003903Y004555D01*
X003803Y004543D01*
X003701Y004535D01*
X003600Y004533D01*
X003499Y004535D01*
X003397Y004543D01*
X003297Y004555D01*
X003197Y004573D01*
X003098Y004595D01*
X003000Y004622D01*
X002904Y004654D01*
X002809Y004690D01*
X002716Y004731D01*
X002626Y004777D01*
X002537Y004827D01*
X002452Y004881D01*
X002369Y004940D01*
X002289Y005002D01*
X002212Y005068D01*
X002138Y005138D01*
X002068Y005212D01*
X002002Y005289D01*
X001940Y005369D01*
X001881Y005452D01*
X001827Y005537D01*
X001777Y005626D01*
X001731Y005716D01*
X001690Y005809D01*
X001654Y005904D01*
X001622Y006000D01*
X001595Y006098D01*
X001573Y006197D01*
X001555Y006297D01*
X001543Y006397D01*
X001535Y006499D01*
X001533Y006600D01*
D12*
X008632Y007380D02*
X008560Y007326D01*
X008561Y007327D02*
X008518Y007380D01*
X008473Y007431D01*
X008424Y007479D01*
X008373Y007524D01*
X008319Y007567D01*
X008263Y007606D01*
X008205Y007642D01*
X008145Y007675D01*
X008084Y007704D01*
X008020Y007729D01*
X007956Y007751D01*
X007890Y007770D01*
X007823Y007784D01*
X007756Y007795D01*
X007688Y007802D01*
X007620Y007805D01*
X007551Y007804D01*
X007483Y007799D01*
X007415Y007791D01*
X007348Y007778D01*
X007282Y007762D01*
X007217Y007742D01*
X007152Y007719D01*
X007090Y007692D01*
X007029Y007661D01*
X006970Y007627D01*
X006912Y007590D01*
X006857Y007549D01*
X006805Y007505D01*
X006755Y007459D01*
X006708Y007410D01*
X006663Y007358D01*
X006622Y007304D01*
X006583Y007247D01*
X006548Y007188D01*
X006517Y007128D01*
X006489Y007066D01*
X006464Y007002D01*
X006443Y006937D01*
X006426Y006871D01*
X006412Y006804D01*
X006403Y006736D01*
X006397Y006668D01*
X006395Y006600D01*
X006397Y006532D01*
X006403Y006464D01*
X006412Y006396D01*
X006426Y006329D01*
X006443Y006263D01*
X006464Y006198D01*
X006489Y006134D01*
X006517Y006072D01*
X006548Y006012D01*
X006583Y005953D01*
X006622Y005896D01*
X006663Y005842D01*
X006708Y005790D01*
X006755Y005741D01*
X006805Y005695D01*
X006857Y005651D01*
X006912Y005610D01*
X006970Y005573D01*
X007029Y005539D01*
X007090Y005508D01*
X007152Y005481D01*
X007217Y005458D01*
X007282Y005438D01*
X007348Y005422D01*
X007415Y005409D01*
X007483Y005401D01*
X007551Y005396D01*
X007620Y005395D01*
X007688Y005398D01*
X007756Y005405D01*
X007823Y005416D01*
X007890Y005430D01*
X007956Y005449D01*
X008020Y005471D01*
X008084Y005496D01*
X008145Y005525D01*
X008205Y005558D01*
X008263Y005594D01*
X008319Y005633D01*
X008373Y005676D01*
X008424Y005721D01*
X008473Y005769D01*
X008518Y005820D01*
X008561Y005873D01*
X008632Y005820D01*
X008633Y005819D01*
X008589Y005764D01*
X008541Y005711D01*
X008491Y005660D01*
X008438Y005613D01*
X008383Y005569D01*
X008325Y005527D01*
X008265Y005489D01*
X008204Y005454D01*
X008140Y005423D01*
X008075Y005395D01*
X008008Y005371D01*
X007940Y005350D01*
X007871Y005334D01*
X007801Y005321D01*
X007731Y005312D01*
X007660Y005306D01*
X007589Y005305D01*
X007518Y005308D01*
X007447Y005314D01*
X007377Y005324D01*
X007308Y005338D01*
X007239Y005356D01*
X007171Y005378D01*
X007105Y005403D01*
X007040Y005432D01*
X006977Y005465D01*
X006916Y005501D01*
X006857Y005540D01*
X006800Y005582D01*
X006745Y005627D01*
X006693Y005676D01*
X006644Y005727D01*
X006597Y005780D01*
X006554Y005837D01*
X006514Y005895D01*
X006477Y005956D01*
X006443Y006018D01*
X006413Y006082D01*
X006386Y006148D01*
X006363Y006215D01*
X006344Y006284D01*
X006329Y006353D01*
X006317Y006423D01*
X006309Y006494D01*
X006305Y006565D01*
X006305Y006635D01*
X006309Y006706D01*
X006317Y006777D01*
X006329Y006847D01*
X006344Y006916D01*
X006363Y006985D01*
X006386Y007052D01*
X006413Y007118D01*
X006443Y007182D01*
X006477Y007244D01*
X006514Y007305D01*
X006554Y007363D01*
X006597Y007420D01*
X006644Y007473D01*
X006693Y007524D01*
X006745Y007573D01*
X006800Y007618D01*
X006857Y007660D01*
X006916Y007699D01*
X006977Y007735D01*
X007040Y007768D01*
X007105Y007797D01*
X007171Y007822D01*
X007239Y007844D01*
X007308Y007862D01*
X007377Y007876D01*
X007447Y007886D01*
X007518Y007892D01*
X007589Y007895D01*
X007660Y007894D01*
X007731Y007888D01*
X007801Y007879D01*
X007871Y007866D01*
X007940Y007850D01*
X008008Y007829D01*
X008075Y007805D01*
X008140Y007777D01*
X008204Y007746D01*
X008265Y007711D01*
X008325Y007673D01*
X008383Y007631D01*
X008438Y007587D01*
X008491Y007540D01*
X008541Y007489D01*
X008589Y007436D01*
X008633Y007381D01*
X008626Y007376D01*
X008581Y007431D01*
X008534Y007484D01*
X008483Y007535D01*
X008430Y007582D01*
X008374Y007627D01*
X008316Y007668D01*
X008256Y007706D01*
X008194Y007741D01*
X008130Y007772D01*
X008064Y007799D01*
X007997Y007823D01*
X007928Y007843D01*
X007859Y007860D01*
X007789Y007872D01*
X007718Y007881D01*
X007647Y007885D01*
X007576Y007886D01*
X007505Y007882D01*
X007434Y007875D01*
X007363Y007864D01*
X007294Y007849D01*
X007225Y007830D01*
X007157Y007807D01*
X007091Y007781D01*
X007026Y007751D01*
X006964Y007717D01*
X006903Y007681D01*
X006844Y007640D01*
X006787Y007597D01*
X006733Y007550D01*
X006682Y007501D01*
X006634Y007448D01*
X006588Y007394D01*
X006546Y007336D01*
X006507Y007277D01*
X006471Y007215D01*
X006438Y007152D01*
X006410Y007087D01*
X006384Y007020D01*
X006363Y006952D01*
X006345Y006883D01*
X006332Y006813D01*
X006322Y006742D01*
X006316Y006671D01*
X006314Y006600D01*
X006316Y006529D01*
X006322Y006458D01*
X006332Y006387D01*
X006345Y006317D01*
X006363Y006248D01*
X006384Y006180D01*
X006410Y006113D01*
X006438Y006048D01*
X006471Y005985D01*
X006507Y005923D01*
X006546Y005864D01*
X006588Y005806D01*
X006634Y005752D01*
X006682Y005699D01*
X006733Y005650D01*
X006787Y005603D01*
X006844Y005560D01*
X006903Y005519D01*
X006964Y005483D01*
X007026Y005449D01*
X007091Y005419D01*
X007157Y005393D01*
X007225Y005370D01*
X007294Y005351D01*
X007363Y005336D01*
X007434Y005325D01*
X007505Y005318D01*
X007576Y005314D01*
X007647Y005315D01*
X007718Y005319D01*
X007789Y005328D01*
X007859Y005340D01*
X007928Y005357D01*
X007997Y005377D01*
X008064Y005401D01*
X008130Y005428D01*
X008194Y005459D01*
X008256Y005494D01*
X008316Y005532D01*
X008374Y005573D01*
X008430Y005618D01*
X008483Y005665D01*
X008534Y005716D01*
X008581Y005769D01*
X008626Y005824D01*
X008619Y005830D01*
X008574Y005775D01*
X008527Y005722D01*
X008477Y005672D01*
X008424Y005625D01*
X008369Y005581D01*
X008311Y005539D01*
X008252Y005502D01*
X008190Y005467D01*
X008126Y005436D01*
X008061Y005409D01*
X007994Y005385D01*
X007926Y005365D01*
X007857Y005349D01*
X007788Y005337D01*
X007717Y005328D01*
X007647Y005324D01*
X007576Y005323D01*
X007505Y005327D01*
X007435Y005334D01*
X007365Y005345D01*
X007296Y005360D01*
X007228Y005379D01*
X007160Y005401D01*
X007095Y005427D01*
X007030Y005457D01*
X006968Y005490D01*
X006908Y005527D01*
X006849Y005567D01*
X006793Y005610D01*
X006739Y005656D01*
X006689Y005706D01*
X006640Y005757D01*
X006595Y005812D01*
X006553Y005869D01*
X006514Y005928D01*
X006479Y005989D01*
X006446Y006052D01*
X006418Y006117D01*
X006393Y006183D01*
X006372Y006251D01*
X006354Y006319D01*
X006341Y006389D01*
X006331Y006459D01*
X006325Y006529D01*
X006323Y006600D01*
X006325Y006671D01*
X006331Y006741D01*
X006341Y006811D01*
X006354Y006881D01*
X006372Y006949D01*
X006393Y007017D01*
X006418Y007083D01*
X006446Y007148D01*
X006479Y007211D01*
X006514Y007272D01*
X006553Y007331D01*
X006595Y007388D01*
X006640Y007443D01*
X006689Y007494D01*
X006739Y007544D01*
X006793Y007590D01*
X006849Y007633D01*
X006908Y007673D01*
X006968Y007710D01*
X007030Y007743D01*
X007095Y007773D01*
X007160Y007799D01*
X007228Y007821D01*
X007296Y007840D01*
X007365Y007855D01*
X007435Y007866D01*
X007505Y007873D01*
X007576Y007877D01*
X007647Y007876D01*
X007717Y007872D01*
X007788Y007863D01*
X007857Y007851D01*
X007926Y007835D01*
X007994Y007815D01*
X008061Y007791D01*
X008126Y007764D01*
X008190Y007733D01*
X008252Y007698D01*
X008311Y007661D01*
X008369Y007619D01*
X008424Y007575D01*
X008477Y007528D01*
X008527Y007478D01*
X008574Y007425D01*
X008619Y007370D01*
X008611Y007365D01*
X008567Y007420D01*
X008519Y007473D01*
X008469Y007523D01*
X008416Y007571D01*
X008360Y007615D01*
X008302Y007656D01*
X008242Y007693D01*
X008180Y007728D01*
X008116Y007758D01*
X008050Y007785D01*
X007983Y007809D01*
X007915Y007828D01*
X007845Y007844D01*
X007775Y007856D01*
X007705Y007864D01*
X007634Y007868D01*
X007563Y007867D01*
X007492Y007863D01*
X007421Y007855D01*
X007351Y007843D01*
X007282Y007827D01*
X007214Y007808D01*
X007146Y007784D01*
X007081Y007757D01*
X007017Y007726D01*
X006955Y007692D01*
X006895Y007654D01*
X006837Y007612D01*
X006781Y007568D01*
X006728Y007521D01*
X006678Y007470D01*
X006631Y007417D01*
X006586Y007362D01*
X006545Y007304D01*
X006508Y007244D01*
X006473Y007181D01*
X006442Y007117D01*
X006415Y007052D01*
X006392Y006985D01*
X006372Y006916D01*
X006356Y006847D01*
X006344Y006777D01*
X006336Y006706D01*
X006332Y006636D01*
X006332Y006564D01*
X006336Y006494D01*
X006344Y006423D01*
X006356Y006353D01*
X006372Y006284D01*
X006392Y006215D01*
X006415Y006148D01*
X006442Y006083D01*
X006473Y006019D01*
X006508Y005956D01*
X006545Y005896D01*
X006586Y005838D01*
X006631Y005783D01*
X006678Y005730D01*
X006728Y005679D01*
X006781Y005632D01*
X006837Y005588D01*
X006895Y005546D01*
X006955Y005508D01*
X007017Y005474D01*
X007081Y005443D01*
X007146Y005416D01*
X007214Y005392D01*
X007282Y005373D01*
X007351Y005357D01*
X007421Y005345D01*
X007492Y005337D01*
X007563Y005333D01*
X007634Y005332D01*
X007705Y005336D01*
X007775Y005344D01*
X007845Y005356D01*
X007915Y005372D01*
X007983Y005391D01*
X008050Y005415D01*
X008116Y005442D01*
X008180Y005472D01*
X008242Y005507D01*
X008302Y005544D01*
X008360Y005585D01*
X008416Y005629D01*
X008469Y005677D01*
X008519Y005727D01*
X008567Y005780D01*
X008611Y005835D01*
X008604Y005841D01*
X008560Y005786D01*
X008513Y005733D01*
X008463Y005683D01*
X008410Y005636D01*
X008355Y005592D01*
X008297Y005552D01*
X008238Y005514D01*
X008176Y005480D01*
X008112Y005450D01*
X008047Y005423D01*
X007980Y005400D01*
X007912Y005380D01*
X007844Y005365D01*
X007774Y005353D01*
X007704Y005345D01*
X007633Y005341D01*
X007563Y005342D01*
X007492Y005346D01*
X007422Y005354D01*
X007353Y005366D01*
X007284Y005381D01*
X007216Y005401D01*
X007150Y005424D01*
X007085Y005451D01*
X007021Y005482D01*
X006959Y005516D01*
X006900Y005554D01*
X006842Y005595D01*
X006787Y005639D01*
X006734Y005686D01*
X006685Y005736D01*
X006638Y005788D01*
X006594Y005844D01*
X006553Y005901D01*
X006515Y005961D01*
X006481Y006023D01*
X006451Y006086D01*
X006424Y006151D01*
X006400Y006218D01*
X006381Y006286D01*
X006365Y006355D01*
X006353Y006424D01*
X006345Y006494D01*
X006341Y006565D01*
X006341Y006635D01*
X006345Y006706D01*
X006353Y006776D01*
X006365Y006845D01*
X006381Y006914D01*
X006400Y006982D01*
X006424Y007049D01*
X006451Y007114D01*
X006481Y007177D01*
X006515Y007239D01*
X006553Y007299D01*
X006594Y007356D01*
X006638Y007412D01*
X006685Y007464D01*
X006734Y007514D01*
X006787Y007561D01*
X006842Y007605D01*
X006900Y007646D01*
X006959Y007684D01*
X007021Y007718D01*
X007085Y007749D01*
X007150Y007776D01*
X007216Y007799D01*
X007284Y007819D01*
X007353Y007834D01*
X007422Y007846D01*
X007492Y007854D01*
X007563Y007858D01*
X007633Y007859D01*
X007704Y007855D01*
X007774Y007847D01*
X007844Y007835D01*
X007912Y007820D01*
X007980Y007800D01*
X008047Y007777D01*
X008112Y007750D01*
X008176Y007720D01*
X008238Y007686D01*
X008297Y007648D01*
X008355Y007608D01*
X008410Y007564D01*
X008463Y007517D01*
X008513Y007467D01*
X008560Y007414D01*
X008604Y007359D01*
X008597Y007354D01*
X008553Y007409D01*
X008506Y007461D01*
X008457Y007510D01*
X008404Y007557D01*
X008350Y007600D01*
X008292Y007641D01*
X008233Y007678D01*
X008172Y007712D01*
X008108Y007742D01*
X008044Y007769D01*
X007977Y007792D01*
X007910Y007811D01*
X007842Y007826D01*
X007773Y007838D01*
X007703Y007846D01*
X007633Y007850D01*
X007563Y007849D01*
X007493Y007845D01*
X007424Y007837D01*
X007355Y007826D01*
X007286Y007810D01*
X007219Y007791D01*
X007153Y007767D01*
X007088Y007740D01*
X007025Y007710D01*
X006964Y007676D01*
X006905Y007639D01*
X006847Y007598D01*
X006793Y007554D01*
X006741Y007508D01*
X006691Y007458D01*
X006644Y007406D01*
X006601Y007351D01*
X006560Y007294D01*
X006523Y007235D01*
X006489Y007173D01*
X006459Y007110D01*
X006432Y007045D01*
X006409Y006979D01*
X006390Y006912D01*
X006374Y006844D01*
X006362Y006775D01*
X006354Y006705D01*
X006350Y006635D01*
X006350Y006565D01*
X006354Y006495D01*
X006362Y006425D01*
X006374Y006356D01*
X006390Y006288D01*
X006409Y006221D01*
X006432Y006155D01*
X006459Y006090D01*
X006489Y006027D01*
X006523Y005965D01*
X006560Y005906D01*
X006601Y005849D01*
X006644Y005794D01*
X006691Y005742D01*
X006741Y005692D01*
X006793Y005646D01*
X006847Y005602D01*
X006905Y005561D01*
X006964Y005524D01*
X007025Y005490D01*
X007088Y005460D01*
X007153Y005433D01*
X007219Y005409D01*
X007286Y005390D01*
X007355Y005374D01*
X007424Y005363D01*
X007493Y005355D01*
X007563Y005351D01*
X007633Y005350D01*
X007703Y005354D01*
X007773Y005362D01*
X007842Y005374D01*
X007910Y005389D01*
X007977Y005408D01*
X008044Y005431D01*
X008108Y005458D01*
X008172Y005488D01*
X008233Y005522D01*
X008292Y005559D01*
X008350Y005600D01*
X008404Y005643D01*
X008457Y005690D01*
X008506Y005739D01*
X008553Y005791D01*
X008597Y005846D01*
X008590Y005851D01*
X008546Y005797D01*
X008500Y005745D01*
X008451Y005696D01*
X008399Y005650D01*
X008344Y005607D01*
X008287Y005567D01*
X008228Y005530D01*
X008167Y005496D01*
X008105Y005466D01*
X008040Y005440D01*
X007975Y005417D01*
X007908Y005398D01*
X007840Y005382D01*
X007771Y005371D01*
X007702Y005363D01*
X007633Y005359D01*
X007563Y005360D01*
X007494Y005364D01*
X007425Y005371D01*
X007356Y005383D01*
X007289Y005399D01*
X007222Y005418D01*
X007156Y005441D01*
X007092Y005468D01*
X007029Y005498D01*
X006968Y005532D01*
X006910Y005569D01*
X006853Y005609D01*
X006799Y005652D01*
X006747Y005699D01*
X006698Y005748D01*
X006651Y005800D01*
X006608Y005854D01*
X006568Y005911D01*
X006531Y005970D01*
X006497Y006031D01*
X006467Y006094D01*
X006440Y006158D01*
X006417Y006223D01*
X006398Y006290D01*
X006383Y006358D01*
X006371Y006427D01*
X006363Y006496D01*
X006359Y006565D01*
X006359Y006635D01*
X006363Y006704D01*
X006371Y006773D01*
X006383Y006842D01*
X006398Y006910D01*
X006417Y006977D01*
X006440Y007042D01*
X006467Y007106D01*
X006497Y007169D01*
X006531Y007230D01*
X006568Y007289D01*
X006608Y007346D01*
X006651Y007400D01*
X006698Y007452D01*
X006747Y007501D01*
X006799Y007548D01*
X006853Y007591D01*
X006910Y007631D01*
X006968Y007668D01*
X007029Y007702D01*
X007092Y007732D01*
X007156Y007759D01*
X007222Y007782D01*
X007289Y007801D01*
X007356Y007817D01*
X007425Y007829D01*
X007494Y007836D01*
X007563Y007840D01*
X007633Y007841D01*
X007702Y007837D01*
X007771Y007829D01*
X007840Y007818D01*
X007908Y007802D01*
X007975Y007783D01*
X008040Y007760D01*
X008105Y007734D01*
X008167Y007704D01*
X008228Y007670D01*
X008287Y007633D01*
X008344Y007593D01*
X008399Y007550D01*
X008451Y007504D01*
X008500Y007455D01*
X008546Y007403D01*
X008590Y007349D01*
X008583Y007343D01*
X008539Y007397D01*
X008493Y007448D01*
X008444Y007497D01*
X008393Y007543D01*
X008339Y007586D01*
X008282Y007626D01*
X008224Y007662D01*
X008163Y007696D01*
X008101Y007726D01*
X008037Y007752D01*
X007972Y007774D01*
X007906Y007793D01*
X007838Y007809D01*
X007770Y007820D01*
X007702Y007828D01*
X007633Y007832D01*
X007564Y007831D01*
X007495Y007827D01*
X007426Y007820D01*
X007358Y007808D01*
X007291Y007793D01*
X007224Y007773D01*
X007159Y007750D01*
X007096Y007724D01*
X007033Y007694D01*
X006973Y007661D01*
X006915Y007624D01*
X006858Y007584D01*
X006804Y007541D01*
X006753Y007495D01*
X006704Y007446D01*
X006658Y007394D01*
X006615Y007340D01*
X006575Y007284D01*
X006539Y007225D01*
X006505Y007165D01*
X006475Y007103D01*
X006449Y007039D01*
X006426Y006974D01*
X006407Y006907D01*
X006392Y006840D01*
X006380Y006772D01*
X006372Y006703D01*
X006368Y006635D01*
X006368Y006565D01*
X006372Y006497D01*
X006380Y006428D01*
X006392Y006360D01*
X006407Y006293D01*
X006426Y006226D01*
X006449Y006161D01*
X006475Y006097D01*
X006505Y006035D01*
X006539Y005975D01*
X006575Y005916D01*
X006615Y005860D01*
X006658Y005806D01*
X006704Y005754D01*
X006753Y005705D01*
X006804Y005659D01*
X006858Y005616D01*
X006915Y005576D01*
X006973Y005539D01*
X007033Y005506D01*
X007096Y005476D01*
X007159Y005450D01*
X007224Y005427D01*
X007291Y005407D01*
X007358Y005392D01*
X007426Y005380D01*
X007495Y005373D01*
X007564Y005369D01*
X007633Y005368D01*
X007702Y005372D01*
X007770Y005380D01*
X007838Y005391D01*
X007906Y005407D01*
X007972Y005426D01*
X008037Y005448D01*
X008101Y005474D01*
X008163Y005504D01*
X008224Y005538D01*
X008282Y005574D01*
X008339Y005614D01*
X008393Y005657D01*
X008444Y005703D01*
X008493Y005752D01*
X008539Y005803D01*
X008583Y005857D01*
X008575Y005862D01*
X008532Y005808D01*
X008486Y005757D01*
X008436Y005708D01*
X008385Y005662D01*
X008330Y005619D01*
X008273Y005579D01*
X008215Y005543D01*
X008154Y005509D01*
X008091Y005480D01*
X008027Y005454D01*
X007961Y005432D01*
X007894Y005413D01*
X007827Y005398D01*
X007758Y005387D01*
X007689Y005380D01*
X007620Y005377D01*
X007551Y005378D01*
X007481Y005383D01*
X007413Y005391D01*
X007345Y005404D01*
X007277Y005420D01*
X007211Y005441D01*
X007146Y005464D01*
X007082Y005492D01*
X007020Y005523D01*
X006960Y005558D01*
X006902Y005596D01*
X006846Y005637D01*
X006793Y005681D01*
X006742Y005728D01*
X006694Y005778D01*
X006649Y005831D01*
X006607Y005886D01*
X006568Y005943D01*
X006533Y006003D01*
X006501Y006064D01*
X006472Y006127D01*
X006447Y006192D01*
X006426Y006258D01*
X006408Y006325D01*
X006395Y006393D01*
X006385Y006462D01*
X006379Y006531D01*
X006377Y006600D01*
X006379Y006669D01*
X006385Y006738D01*
X006395Y006807D01*
X006408Y006875D01*
X006426Y006942D01*
X006447Y007008D01*
X006472Y007073D01*
X006501Y007136D01*
X006533Y007197D01*
X006568Y007257D01*
X006607Y007314D01*
X006649Y007369D01*
X006694Y007422D01*
X006742Y007472D01*
X006793Y007519D01*
X006846Y007563D01*
X006902Y007604D01*
X006960Y007642D01*
X007020Y007677D01*
X007082Y007708D01*
X007146Y007736D01*
X007211Y007759D01*
X007277Y007780D01*
X007345Y007796D01*
X007413Y007809D01*
X007481Y007817D01*
X007551Y007822D01*
X007620Y007823D01*
X007689Y007820D01*
X007758Y007813D01*
X007827Y007802D01*
X007894Y007787D01*
X007961Y007768D01*
X008027Y007746D01*
X008091Y007720D01*
X008154Y007691D01*
X008215Y007657D01*
X008273Y007621D01*
X008330Y007581D01*
X008385Y007538D01*
X008436Y007492D01*
X008486Y007443D01*
X008532Y007392D01*
X008575Y007338D01*
X008568Y007332D01*
X008525Y007386D01*
X008479Y007437D01*
X008430Y007486D01*
X008379Y007531D01*
X008325Y007574D01*
X008268Y007613D01*
X008210Y007650D01*
X008150Y007683D01*
X008087Y007712D01*
X008024Y007738D01*
X007958Y007760D01*
X007892Y007778D01*
X007825Y007793D01*
X007757Y007804D01*
X007688Y007811D01*
X007620Y007814D01*
X007551Y007813D01*
X007482Y007808D01*
X007414Y007800D01*
X007346Y007787D01*
X007280Y007771D01*
X007214Y007751D01*
X007149Y007727D01*
X007086Y007700D01*
X007025Y007669D01*
X006965Y007635D01*
X006907Y007597D01*
X006852Y007556D01*
X006799Y007512D01*
X006749Y007465D01*
X006701Y007416D01*
X006656Y007364D01*
X006614Y007309D01*
X006576Y007252D01*
X006541Y007193D01*
X006509Y007132D01*
X006480Y007069D01*
X006456Y007005D01*
X006434Y006939D01*
X006417Y006873D01*
X006404Y006805D01*
X006394Y006737D01*
X006388Y006669D01*
X006386Y006600D01*
X006388Y006531D01*
X006394Y006463D01*
X006404Y006395D01*
X006417Y006327D01*
X006434Y006261D01*
X006456Y006195D01*
X006480Y006131D01*
X006509Y006068D01*
X006541Y006007D01*
X006576Y005948D01*
X006614Y005891D01*
X006656Y005836D01*
X006701Y005784D01*
X006749Y005735D01*
X006799Y005688D01*
X006852Y005644D01*
X006907Y005603D01*
X006965Y005565D01*
X007025Y005531D01*
X007086Y005500D01*
X007149Y005473D01*
X007214Y005449D01*
X007280Y005429D01*
X007346Y005413D01*
X007414Y005400D01*
X007482Y005392D01*
X007551Y005387D01*
X007620Y005386D01*
X007688Y005389D01*
X007757Y005396D01*
X007825Y005407D01*
X007892Y005422D01*
X007958Y005440D01*
X008024Y005462D01*
X008087Y005488D01*
X008150Y005517D01*
X008210Y005550D01*
X008268Y005587D01*
X008325Y005626D01*
X008379Y005669D01*
X008430Y005714D01*
X008479Y005763D01*
X008525Y005814D01*
X008568Y005868D01*
D13*
X006600Y006600D02*
X006602Y006663D01*
X006608Y006725D01*
X006618Y006787D01*
X006631Y006849D01*
X006649Y006909D01*
X006670Y006968D01*
X006695Y007026D01*
X006724Y007082D01*
X006756Y007136D01*
X006791Y007188D01*
X006829Y007237D01*
X006871Y007285D01*
X006915Y007329D01*
X006963Y007371D01*
X007012Y007409D01*
X007064Y007444D01*
X007118Y007476D01*
X007174Y007505D01*
X007232Y007530D01*
X007291Y007551D01*
X007351Y007569D01*
X007413Y007582D01*
X007475Y007592D01*
X007537Y007598D01*
X007600Y007600D01*
X007663Y007598D01*
X007725Y007592D01*
X007787Y007582D01*
X007849Y007569D01*
X007909Y007551D01*
X007968Y007530D01*
X008026Y007505D01*
X008082Y007476D01*
X008136Y007444D01*
X008188Y007409D01*
X008237Y007371D01*
X008285Y007329D01*
X008329Y007285D01*
X008371Y007237D01*
X008409Y007188D01*
X008444Y007136D01*
X008476Y007082D01*
X008505Y007026D01*
X008530Y006968D01*
X008551Y006909D01*
X008569Y006849D01*
X008582Y006787D01*
X008592Y006725D01*
X008598Y006663D01*
X008600Y006600D01*
X008598Y006537D01*
X008592Y006475D01*
X008582Y006413D01*
X008569Y006351D01*
X008551Y006291D01*
X008530Y006232D01*
X008505Y006174D01*
X008476Y006118D01*
X008444Y006064D01*
X008409Y006012D01*
X008371Y005963D01*
X008329Y005915D01*
X008285Y005871D01*
X008237Y005829D01*
X008188Y005791D01*
X008136Y005756D01*
X008082Y005724D01*
X008026Y005695D01*
X007968Y005670D01*
X007909Y005649D01*
X007849Y005631D01*
X007787Y005618D01*
X007725Y005608D01*
X007663Y005602D01*
X007600Y005600D01*
X007537Y005602D01*
X007475Y005608D01*
X007413Y005618D01*
X007351Y005631D01*
X007291Y005649D01*
X007232Y005670D01*
X007174Y005695D01*
X007118Y005724D01*
X007064Y005756D01*
X007012Y005791D01*
X006963Y005829D01*
X006915Y005871D01*
X006871Y005915D01*
X006829Y005963D01*
X006791Y006012D01*
X006756Y006064D01*
X006724Y006118D01*
X006695Y006174D01*
X006670Y006232D01*
X006649Y006291D01*
X006631Y006351D01*
X006618Y006413D01*
X006608Y006475D01*
X006602Y006537D01*
X006600Y006600D01*
M02*
