%
M48
M72
T01C0.0236
T02C0.0320
T03C0.0394
T04C0.0984
%
T01
X2500Y5950
X2500Y6050
X2500Y6200
X2500Y6300
X2500Y6450
X2500Y6550
X2500Y6700
X2500Y6850
X2500Y7000
X2500Y7100
X2500Y7250
X4700Y7250
X4700Y7100
X4700Y7000
X4700Y6850
X4700Y6700
X4700Y6550
X4700Y6450
X4700Y6300
X4700Y6200
X4700Y6050
X4700Y5950
X10500Y5950
X10500Y6050
X10500Y6200
X10500Y6300
X10500Y6450
X10500Y6550
X10500Y6700
X10500Y6850
X10500Y7000
X10500Y7100
X10500Y7250
X12700Y7250
X12700Y7100
X12700Y7000
X12700Y6850
X12700Y6700
X12700Y6550
X12700Y6450
X12700Y6300
X12700Y6200
X12700Y6050
X12700Y5950
T02
X8100Y6600
X7100Y6600
T03
X4683Y6600
X2517Y6600
X10517Y6600
X12683Y6600
T04
X11600Y6600
X3600Y6600
M30
