G75*
G70*
%OFA0B0*%
%FSLAX24Y24*%
%IPPOS*%
%LPD*%
%AMOC8*
5,1,8,0,0,1.08239X$1,22.5*
%
%ADD10C,0.0316*%
%ADD11C,0.0714*%
%ADD12C,0.1064*%
%ADD13C,0.0820*%
D10*
X002500Y005950D03*
X002500Y006050D03*
X002500Y006200D03*
X002500Y006300D03*
X002500Y006450D03*
X002500Y006550D03*
X002500Y006700D03*
X002500Y006850D03*
X002500Y007000D03*
X002500Y007100D03*
X002500Y007250D03*
X004700Y007250D03*
X004700Y007100D03*
X004700Y007000D03*
X004700Y006850D03*
X004700Y006700D03*
X004700Y006550D03*
X004700Y006450D03*
X004700Y006300D03*
X004700Y006200D03*
X004700Y006050D03*
X004700Y005950D03*
X010500Y005950D03*
X010500Y006050D03*
X010500Y006200D03*
X010500Y006300D03*
X010500Y006450D03*
X010500Y006550D03*
X010500Y006700D03*
X010500Y006850D03*
X010500Y007000D03*
X010500Y007100D03*
X010500Y007250D03*
X012700Y007250D03*
X012700Y007100D03*
X012700Y007000D03*
X012700Y006850D03*
X012700Y006700D03*
X012700Y006550D03*
X012700Y006450D03*
X012700Y006300D03*
X012700Y006200D03*
X012700Y006050D03*
X012700Y005950D03*
D11*
X012683Y006600D03*
X010517Y006600D03*
X004683Y006600D03*
X002517Y006600D03*
D12*
X003600Y006600D03*
X011600Y006600D03*
D13*
X008100Y006600D03*
X007100Y006600D03*
M02*
