G75*
G70*
%OFA0B0*%
%FSLAX24Y24*%
%IPPOS*%
%LPD*%
%AMOC8*
5,1,8,0,0,1.08239X$1,22.5*
%
%ADD10C,0.0000*%
%ADD11C,0.0634*%
%ADD12R,0.0984X0.2165*%
%ADD13C,0.0740*%
D10*
X000100Y000100D02*
X000100Y012596D01*
X014970Y012596D01*
X014970Y000100D01*
X000100Y000100D01*
X002382Y005950D02*
X002384Y005971D01*
X002390Y005991D01*
X002399Y006011D01*
X002411Y006028D01*
X002426Y006042D01*
X002444Y006054D01*
X002464Y006062D01*
X002484Y006067D01*
X002505Y006068D01*
X002526Y006065D01*
X002546Y006059D01*
X002565Y006048D01*
X002582Y006035D01*
X002595Y006019D01*
X002606Y006001D01*
X002614Y005981D01*
X002618Y005961D01*
X002618Y005939D01*
X002614Y005919D01*
X002606Y005899D01*
X002595Y005881D01*
X002582Y005865D01*
X002565Y005852D01*
X002546Y005841D01*
X002526Y005835D01*
X002505Y005832D01*
X002484Y005833D01*
X002464Y005838D01*
X002444Y005846D01*
X002426Y005858D01*
X002411Y005872D01*
X002399Y005889D01*
X002390Y005909D01*
X002384Y005929D01*
X002382Y005950D01*
X002382Y006050D02*
X002384Y006071D01*
X002390Y006091D01*
X002399Y006111D01*
X002411Y006128D01*
X002426Y006142D01*
X002444Y006154D01*
X002464Y006162D01*
X002484Y006167D01*
X002505Y006168D01*
X002526Y006165D01*
X002546Y006159D01*
X002565Y006148D01*
X002582Y006135D01*
X002595Y006119D01*
X002606Y006101D01*
X002614Y006081D01*
X002618Y006061D01*
X002618Y006039D01*
X002614Y006019D01*
X002606Y005999D01*
X002595Y005981D01*
X002582Y005965D01*
X002565Y005952D01*
X002546Y005941D01*
X002526Y005935D01*
X002505Y005932D01*
X002484Y005933D01*
X002464Y005938D01*
X002444Y005946D01*
X002426Y005958D01*
X002411Y005972D01*
X002399Y005989D01*
X002390Y006009D01*
X002384Y006029D01*
X002382Y006050D01*
X002382Y006200D02*
X002384Y006221D01*
X002390Y006241D01*
X002399Y006261D01*
X002411Y006278D01*
X002426Y006292D01*
X002444Y006304D01*
X002464Y006312D01*
X002484Y006317D01*
X002505Y006318D01*
X002526Y006315D01*
X002546Y006309D01*
X002565Y006298D01*
X002582Y006285D01*
X002595Y006269D01*
X002606Y006251D01*
X002614Y006231D01*
X002618Y006211D01*
X002618Y006189D01*
X002614Y006169D01*
X002606Y006149D01*
X002595Y006131D01*
X002582Y006115D01*
X002565Y006102D01*
X002546Y006091D01*
X002526Y006085D01*
X002505Y006082D01*
X002484Y006083D01*
X002464Y006088D01*
X002444Y006096D01*
X002426Y006108D01*
X002411Y006122D01*
X002399Y006139D01*
X002390Y006159D01*
X002384Y006179D01*
X002382Y006200D01*
X002382Y006300D02*
X002384Y006321D01*
X002390Y006341D01*
X002399Y006361D01*
X002411Y006378D01*
X002426Y006392D01*
X002444Y006404D01*
X002464Y006412D01*
X002484Y006417D01*
X002505Y006418D01*
X002526Y006415D01*
X002546Y006409D01*
X002565Y006398D01*
X002582Y006385D01*
X002595Y006369D01*
X002606Y006351D01*
X002614Y006331D01*
X002618Y006311D01*
X002618Y006289D01*
X002614Y006269D01*
X002606Y006249D01*
X002595Y006231D01*
X002582Y006215D01*
X002565Y006202D01*
X002546Y006191D01*
X002526Y006185D01*
X002505Y006182D01*
X002484Y006183D01*
X002464Y006188D01*
X002444Y006196D01*
X002426Y006208D01*
X002411Y006222D01*
X002399Y006239D01*
X002390Y006259D01*
X002384Y006279D01*
X002382Y006300D01*
X002382Y006450D02*
X002384Y006471D01*
X002390Y006491D01*
X002399Y006511D01*
X002411Y006528D01*
X002426Y006542D01*
X002444Y006554D01*
X002464Y006562D01*
X002484Y006567D01*
X002505Y006568D01*
X002526Y006565D01*
X002546Y006559D01*
X002565Y006548D01*
X002582Y006535D01*
X002595Y006519D01*
X002606Y006501D01*
X002614Y006481D01*
X002618Y006461D01*
X002618Y006439D01*
X002614Y006419D01*
X002606Y006399D01*
X002595Y006381D01*
X002582Y006365D01*
X002565Y006352D01*
X002546Y006341D01*
X002526Y006335D01*
X002505Y006332D01*
X002484Y006333D01*
X002464Y006338D01*
X002444Y006346D01*
X002426Y006358D01*
X002411Y006372D01*
X002399Y006389D01*
X002390Y006409D01*
X002384Y006429D01*
X002382Y006450D01*
X002382Y006550D02*
X002384Y006571D01*
X002390Y006591D01*
X002399Y006611D01*
X002411Y006628D01*
X002426Y006642D01*
X002444Y006654D01*
X002464Y006662D01*
X002484Y006667D01*
X002505Y006668D01*
X002526Y006665D01*
X002546Y006659D01*
X002565Y006648D01*
X002582Y006635D01*
X002595Y006619D01*
X002606Y006601D01*
X002614Y006581D01*
X002618Y006561D01*
X002618Y006539D01*
X002614Y006519D01*
X002606Y006499D01*
X002595Y006481D01*
X002582Y006465D01*
X002565Y006452D01*
X002546Y006441D01*
X002526Y006435D01*
X002505Y006432D01*
X002484Y006433D01*
X002464Y006438D01*
X002444Y006446D01*
X002426Y006458D01*
X002411Y006472D01*
X002399Y006489D01*
X002390Y006509D01*
X002384Y006529D01*
X002382Y006550D01*
X002382Y006700D02*
X002384Y006721D01*
X002390Y006741D01*
X002399Y006761D01*
X002411Y006778D01*
X002426Y006792D01*
X002444Y006804D01*
X002464Y006812D01*
X002484Y006817D01*
X002505Y006818D01*
X002526Y006815D01*
X002546Y006809D01*
X002565Y006798D01*
X002582Y006785D01*
X002595Y006769D01*
X002606Y006751D01*
X002614Y006731D01*
X002618Y006711D01*
X002618Y006689D01*
X002614Y006669D01*
X002606Y006649D01*
X002595Y006631D01*
X002582Y006615D01*
X002565Y006602D01*
X002546Y006591D01*
X002526Y006585D01*
X002505Y006582D01*
X002484Y006583D01*
X002464Y006588D01*
X002444Y006596D01*
X002426Y006608D01*
X002411Y006622D01*
X002399Y006639D01*
X002390Y006659D01*
X002384Y006679D01*
X002382Y006700D01*
X002382Y006850D02*
X002384Y006871D01*
X002390Y006891D01*
X002399Y006911D01*
X002411Y006928D01*
X002426Y006942D01*
X002444Y006954D01*
X002464Y006962D01*
X002484Y006967D01*
X002505Y006968D01*
X002526Y006965D01*
X002546Y006959D01*
X002565Y006948D01*
X002582Y006935D01*
X002595Y006919D01*
X002606Y006901D01*
X002614Y006881D01*
X002618Y006861D01*
X002618Y006839D01*
X002614Y006819D01*
X002606Y006799D01*
X002595Y006781D01*
X002582Y006765D01*
X002565Y006752D01*
X002546Y006741D01*
X002526Y006735D01*
X002505Y006732D01*
X002484Y006733D01*
X002464Y006738D01*
X002444Y006746D01*
X002426Y006758D01*
X002411Y006772D01*
X002399Y006789D01*
X002390Y006809D01*
X002384Y006829D01*
X002382Y006850D01*
X002382Y007000D02*
X002384Y007021D01*
X002390Y007041D01*
X002399Y007061D01*
X002411Y007078D01*
X002426Y007092D01*
X002444Y007104D01*
X002464Y007112D01*
X002484Y007117D01*
X002505Y007118D01*
X002526Y007115D01*
X002546Y007109D01*
X002565Y007098D01*
X002582Y007085D01*
X002595Y007069D01*
X002606Y007051D01*
X002614Y007031D01*
X002618Y007011D01*
X002618Y006989D01*
X002614Y006969D01*
X002606Y006949D01*
X002595Y006931D01*
X002582Y006915D01*
X002565Y006902D01*
X002546Y006891D01*
X002526Y006885D01*
X002505Y006882D01*
X002484Y006883D01*
X002464Y006888D01*
X002444Y006896D01*
X002426Y006908D01*
X002411Y006922D01*
X002399Y006939D01*
X002390Y006959D01*
X002384Y006979D01*
X002382Y007000D01*
X002382Y007100D02*
X002384Y007121D01*
X002390Y007141D01*
X002399Y007161D01*
X002411Y007178D01*
X002426Y007192D01*
X002444Y007204D01*
X002464Y007212D01*
X002484Y007217D01*
X002505Y007218D01*
X002526Y007215D01*
X002546Y007209D01*
X002565Y007198D01*
X002582Y007185D01*
X002595Y007169D01*
X002606Y007151D01*
X002614Y007131D01*
X002618Y007111D01*
X002618Y007089D01*
X002614Y007069D01*
X002606Y007049D01*
X002595Y007031D01*
X002582Y007015D01*
X002565Y007002D01*
X002546Y006991D01*
X002526Y006985D01*
X002505Y006982D01*
X002484Y006983D01*
X002464Y006988D01*
X002444Y006996D01*
X002426Y007008D01*
X002411Y007022D01*
X002399Y007039D01*
X002390Y007059D01*
X002384Y007079D01*
X002382Y007100D01*
X002382Y007250D02*
X002384Y007271D01*
X002390Y007291D01*
X002399Y007311D01*
X002411Y007328D01*
X002426Y007342D01*
X002444Y007354D01*
X002464Y007362D01*
X002484Y007367D01*
X002505Y007368D01*
X002526Y007365D01*
X002546Y007359D01*
X002565Y007348D01*
X002582Y007335D01*
X002595Y007319D01*
X002606Y007301D01*
X002614Y007281D01*
X002618Y007261D01*
X002618Y007239D01*
X002614Y007219D01*
X002606Y007199D01*
X002595Y007181D01*
X002582Y007165D01*
X002565Y007152D01*
X002546Y007141D01*
X002526Y007135D01*
X002505Y007132D01*
X002484Y007133D01*
X002464Y007138D01*
X002444Y007146D01*
X002426Y007158D01*
X002411Y007172D01*
X002399Y007189D01*
X002390Y007209D01*
X002384Y007229D01*
X002382Y007250D01*
X003108Y006600D02*
X003110Y006644D01*
X003116Y006688D01*
X003126Y006731D01*
X003139Y006773D01*
X003157Y006813D01*
X003178Y006852D01*
X003202Y006889D01*
X003229Y006924D01*
X003260Y006956D01*
X003293Y006985D01*
X003329Y007011D01*
X003367Y007033D01*
X003407Y007052D01*
X003448Y007068D01*
X003491Y007080D01*
X003534Y007088D01*
X003578Y007092D01*
X003622Y007092D01*
X003666Y007088D01*
X003709Y007080D01*
X003752Y007068D01*
X003793Y007052D01*
X003833Y007033D01*
X003871Y007011D01*
X003907Y006985D01*
X003940Y006956D01*
X003971Y006924D01*
X003998Y006889D01*
X004022Y006852D01*
X004043Y006813D01*
X004061Y006773D01*
X004074Y006731D01*
X004084Y006688D01*
X004090Y006644D01*
X004092Y006600D01*
X004090Y006556D01*
X004084Y006512D01*
X004074Y006469D01*
X004061Y006427D01*
X004043Y006387D01*
X004022Y006348D01*
X003998Y006311D01*
X003971Y006276D01*
X003940Y006244D01*
X003907Y006215D01*
X003871Y006189D01*
X003833Y006167D01*
X003793Y006148D01*
X003752Y006132D01*
X003709Y006120D01*
X003666Y006112D01*
X003622Y006108D01*
X003578Y006108D01*
X003534Y006112D01*
X003491Y006120D01*
X003448Y006132D01*
X003407Y006148D01*
X003367Y006167D01*
X003329Y006189D01*
X003293Y006215D01*
X003260Y006244D01*
X003229Y006276D01*
X003202Y006311D01*
X003178Y006348D01*
X003157Y006387D01*
X003139Y006427D01*
X003126Y006469D01*
X003116Y006512D01*
X003110Y006556D01*
X003108Y006600D01*
X004582Y006550D02*
X004584Y006571D01*
X004590Y006591D01*
X004599Y006611D01*
X004611Y006628D01*
X004626Y006642D01*
X004644Y006654D01*
X004664Y006662D01*
X004684Y006667D01*
X004705Y006668D01*
X004726Y006665D01*
X004746Y006659D01*
X004765Y006648D01*
X004782Y006635D01*
X004795Y006619D01*
X004806Y006601D01*
X004814Y006581D01*
X004818Y006561D01*
X004818Y006539D01*
X004814Y006519D01*
X004806Y006499D01*
X004795Y006481D01*
X004782Y006465D01*
X004765Y006452D01*
X004746Y006441D01*
X004726Y006435D01*
X004705Y006432D01*
X004684Y006433D01*
X004664Y006438D01*
X004644Y006446D01*
X004626Y006458D01*
X004611Y006472D01*
X004599Y006489D01*
X004590Y006509D01*
X004584Y006529D01*
X004582Y006550D01*
X004582Y006450D02*
X004584Y006471D01*
X004590Y006491D01*
X004599Y006511D01*
X004611Y006528D01*
X004626Y006542D01*
X004644Y006554D01*
X004664Y006562D01*
X004684Y006567D01*
X004705Y006568D01*
X004726Y006565D01*
X004746Y006559D01*
X004765Y006548D01*
X004782Y006535D01*
X004795Y006519D01*
X004806Y006501D01*
X004814Y006481D01*
X004818Y006461D01*
X004818Y006439D01*
X004814Y006419D01*
X004806Y006399D01*
X004795Y006381D01*
X004782Y006365D01*
X004765Y006352D01*
X004746Y006341D01*
X004726Y006335D01*
X004705Y006332D01*
X004684Y006333D01*
X004664Y006338D01*
X004644Y006346D01*
X004626Y006358D01*
X004611Y006372D01*
X004599Y006389D01*
X004590Y006409D01*
X004584Y006429D01*
X004582Y006450D01*
X004582Y006300D02*
X004584Y006321D01*
X004590Y006341D01*
X004599Y006361D01*
X004611Y006378D01*
X004626Y006392D01*
X004644Y006404D01*
X004664Y006412D01*
X004684Y006417D01*
X004705Y006418D01*
X004726Y006415D01*
X004746Y006409D01*
X004765Y006398D01*
X004782Y006385D01*
X004795Y006369D01*
X004806Y006351D01*
X004814Y006331D01*
X004818Y006311D01*
X004818Y006289D01*
X004814Y006269D01*
X004806Y006249D01*
X004795Y006231D01*
X004782Y006215D01*
X004765Y006202D01*
X004746Y006191D01*
X004726Y006185D01*
X004705Y006182D01*
X004684Y006183D01*
X004664Y006188D01*
X004644Y006196D01*
X004626Y006208D01*
X004611Y006222D01*
X004599Y006239D01*
X004590Y006259D01*
X004584Y006279D01*
X004582Y006300D01*
X004582Y006200D02*
X004584Y006221D01*
X004590Y006241D01*
X004599Y006261D01*
X004611Y006278D01*
X004626Y006292D01*
X004644Y006304D01*
X004664Y006312D01*
X004684Y006317D01*
X004705Y006318D01*
X004726Y006315D01*
X004746Y006309D01*
X004765Y006298D01*
X004782Y006285D01*
X004795Y006269D01*
X004806Y006251D01*
X004814Y006231D01*
X004818Y006211D01*
X004818Y006189D01*
X004814Y006169D01*
X004806Y006149D01*
X004795Y006131D01*
X004782Y006115D01*
X004765Y006102D01*
X004746Y006091D01*
X004726Y006085D01*
X004705Y006082D01*
X004684Y006083D01*
X004664Y006088D01*
X004644Y006096D01*
X004626Y006108D01*
X004611Y006122D01*
X004599Y006139D01*
X004590Y006159D01*
X004584Y006179D01*
X004582Y006200D01*
X004582Y006050D02*
X004584Y006071D01*
X004590Y006091D01*
X004599Y006111D01*
X004611Y006128D01*
X004626Y006142D01*
X004644Y006154D01*
X004664Y006162D01*
X004684Y006167D01*
X004705Y006168D01*
X004726Y006165D01*
X004746Y006159D01*
X004765Y006148D01*
X004782Y006135D01*
X004795Y006119D01*
X004806Y006101D01*
X004814Y006081D01*
X004818Y006061D01*
X004818Y006039D01*
X004814Y006019D01*
X004806Y005999D01*
X004795Y005981D01*
X004782Y005965D01*
X004765Y005952D01*
X004746Y005941D01*
X004726Y005935D01*
X004705Y005932D01*
X004684Y005933D01*
X004664Y005938D01*
X004644Y005946D01*
X004626Y005958D01*
X004611Y005972D01*
X004599Y005989D01*
X004590Y006009D01*
X004584Y006029D01*
X004582Y006050D01*
X004582Y005950D02*
X004584Y005971D01*
X004590Y005991D01*
X004599Y006011D01*
X004611Y006028D01*
X004626Y006042D01*
X004644Y006054D01*
X004664Y006062D01*
X004684Y006067D01*
X004705Y006068D01*
X004726Y006065D01*
X004746Y006059D01*
X004765Y006048D01*
X004782Y006035D01*
X004795Y006019D01*
X004806Y006001D01*
X004814Y005981D01*
X004818Y005961D01*
X004818Y005939D01*
X004814Y005919D01*
X004806Y005899D01*
X004795Y005881D01*
X004782Y005865D01*
X004765Y005852D01*
X004746Y005841D01*
X004726Y005835D01*
X004705Y005832D01*
X004684Y005833D01*
X004664Y005838D01*
X004644Y005846D01*
X004626Y005858D01*
X004611Y005872D01*
X004599Y005889D01*
X004590Y005909D01*
X004584Y005929D01*
X004582Y005950D01*
X004582Y006700D02*
X004584Y006721D01*
X004590Y006741D01*
X004599Y006761D01*
X004611Y006778D01*
X004626Y006792D01*
X004644Y006804D01*
X004664Y006812D01*
X004684Y006817D01*
X004705Y006818D01*
X004726Y006815D01*
X004746Y006809D01*
X004765Y006798D01*
X004782Y006785D01*
X004795Y006769D01*
X004806Y006751D01*
X004814Y006731D01*
X004818Y006711D01*
X004818Y006689D01*
X004814Y006669D01*
X004806Y006649D01*
X004795Y006631D01*
X004782Y006615D01*
X004765Y006602D01*
X004746Y006591D01*
X004726Y006585D01*
X004705Y006582D01*
X004684Y006583D01*
X004664Y006588D01*
X004644Y006596D01*
X004626Y006608D01*
X004611Y006622D01*
X004599Y006639D01*
X004590Y006659D01*
X004584Y006679D01*
X004582Y006700D01*
X004582Y006850D02*
X004584Y006871D01*
X004590Y006891D01*
X004599Y006911D01*
X004611Y006928D01*
X004626Y006942D01*
X004644Y006954D01*
X004664Y006962D01*
X004684Y006967D01*
X004705Y006968D01*
X004726Y006965D01*
X004746Y006959D01*
X004765Y006948D01*
X004782Y006935D01*
X004795Y006919D01*
X004806Y006901D01*
X004814Y006881D01*
X004818Y006861D01*
X004818Y006839D01*
X004814Y006819D01*
X004806Y006799D01*
X004795Y006781D01*
X004782Y006765D01*
X004765Y006752D01*
X004746Y006741D01*
X004726Y006735D01*
X004705Y006732D01*
X004684Y006733D01*
X004664Y006738D01*
X004644Y006746D01*
X004626Y006758D01*
X004611Y006772D01*
X004599Y006789D01*
X004590Y006809D01*
X004584Y006829D01*
X004582Y006850D01*
X004582Y007000D02*
X004584Y007021D01*
X004590Y007041D01*
X004599Y007061D01*
X004611Y007078D01*
X004626Y007092D01*
X004644Y007104D01*
X004664Y007112D01*
X004684Y007117D01*
X004705Y007118D01*
X004726Y007115D01*
X004746Y007109D01*
X004765Y007098D01*
X004782Y007085D01*
X004795Y007069D01*
X004806Y007051D01*
X004814Y007031D01*
X004818Y007011D01*
X004818Y006989D01*
X004814Y006969D01*
X004806Y006949D01*
X004795Y006931D01*
X004782Y006915D01*
X004765Y006902D01*
X004746Y006891D01*
X004726Y006885D01*
X004705Y006882D01*
X004684Y006883D01*
X004664Y006888D01*
X004644Y006896D01*
X004626Y006908D01*
X004611Y006922D01*
X004599Y006939D01*
X004590Y006959D01*
X004584Y006979D01*
X004582Y007000D01*
X004582Y007100D02*
X004584Y007121D01*
X004590Y007141D01*
X004599Y007161D01*
X004611Y007178D01*
X004626Y007192D01*
X004644Y007204D01*
X004664Y007212D01*
X004684Y007217D01*
X004705Y007218D01*
X004726Y007215D01*
X004746Y007209D01*
X004765Y007198D01*
X004782Y007185D01*
X004795Y007169D01*
X004806Y007151D01*
X004814Y007131D01*
X004818Y007111D01*
X004818Y007089D01*
X004814Y007069D01*
X004806Y007049D01*
X004795Y007031D01*
X004782Y007015D01*
X004765Y007002D01*
X004746Y006991D01*
X004726Y006985D01*
X004705Y006982D01*
X004684Y006983D01*
X004664Y006988D01*
X004644Y006996D01*
X004626Y007008D01*
X004611Y007022D01*
X004599Y007039D01*
X004590Y007059D01*
X004584Y007079D01*
X004582Y007100D01*
X004582Y007250D02*
X004584Y007271D01*
X004590Y007291D01*
X004599Y007311D01*
X004611Y007328D01*
X004626Y007342D01*
X004644Y007354D01*
X004664Y007362D01*
X004684Y007367D01*
X004705Y007368D01*
X004726Y007365D01*
X004746Y007359D01*
X004765Y007348D01*
X004782Y007335D01*
X004795Y007319D01*
X004806Y007301D01*
X004814Y007281D01*
X004818Y007261D01*
X004818Y007239D01*
X004814Y007219D01*
X004806Y007199D01*
X004795Y007181D01*
X004782Y007165D01*
X004765Y007152D01*
X004746Y007141D01*
X004726Y007135D01*
X004705Y007132D01*
X004684Y007133D01*
X004664Y007138D01*
X004644Y007146D01*
X004626Y007158D01*
X004611Y007172D01*
X004599Y007189D01*
X004590Y007209D01*
X004584Y007229D01*
X004582Y007250D01*
X010382Y007250D02*
X010384Y007271D01*
X010390Y007291D01*
X010399Y007311D01*
X010411Y007328D01*
X010426Y007342D01*
X010444Y007354D01*
X010464Y007362D01*
X010484Y007367D01*
X010505Y007368D01*
X010526Y007365D01*
X010546Y007359D01*
X010565Y007348D01*
X010582Y007335D01*
X010595Y007319D01*
X010606Y007301D01*
X010614Y007281D01*
X010618Y007261D01*
X010618Y007239D01*
X010614Y007219D01*
X010606Y007199D01*
X010595Y007181D01*
X010582Y007165D01*
X010565Y007152D01*
X010546Y007141D01*
X010526Y007135D01*
X010505Y007132D01*
X010484Y007133D01*
X010464Y007138D01*
X010444Y007146D01*
X010426Y007158D01*
X010411Y007172D01*
X010399Y007189D01*
X010390Y007209D01*
X010384Y007229D01*
X010382Y007250D01*
X010382Y007100D02*
X010384Y007121D01*
X010390Y007141D01*
X010399Y007161D01*
X010411Y007178D01*
X010426Y007192D01*
X010444Y007204D01*
X010464Y007212D01*
X010484Y007217D01*
X010505Y007218D01*
X010526Y007215D01*
X010546Y007209D01*
X010565Y007198D01*
X010582Y007185D01*
X010595Y007169D01*
X010606Y007151D01*
X010614Y007131D01*
X010618Y007111D01*
X010618Y007089D01*
X010614Y007069D01*
X010606Y007049D01*
X010595Y007031D01*
X010582Y007015D01*
X010565Y007002D01*
X010546Y006991D01*
X010526Y006985D01*
X010505Y006982D01*
X010484Y006983D01*
X010464Y006988D01*
X010444Y006996D01*
X010426Y007008D01*
X010411Y007022D01*
X010399Y007039D01*
X010390Y007059D01*
X010384Y007079D01*
X010382Y007100D01*
X010382Y007000D02*
X010384Y007021D01*
X010390Y007041D01*
X010399Y007061D01*
X010411Y007078D01*
X010426Y007092D01*
X010444Y007104D01*
X010464Y007112D01*
X010484Y007117D01*
X010505Y007118D01*
X010526Y007115D01*
X010546Y007109D01*
X010565Y007098D01*
X010582Y007085D01*
X010595Y007069D01*
X010606Y007051D01*
X010614Y007031D01*
X010618Y007011D01*
X010618Y006989D01*
X010614Y006969D01*
X010606Y006949D01*
X010595Y006931D01*
X010582Y006915D01*
X010565Y006902D01*
X010546Y006891D01*
X010526Y006885D01*
X010505Y006882D01*
X010484Y006883D01*
X010464Y006888D01*
X010444Y006896D01*
X010426Y006908D01*
X010411Y006922D01*
X010399Y006939D01*
X010390Y006959D01*
X010384Y006979D01*
X010382Y007000D01*
X010382Y006850D02*
X010384Y006871D01*
X010390Y006891D01*
X010399Y006911D01*
X010411Y006928D01*
X010426Y006942D01*
X010444Y006954D01*
X010464Y006962D01*
X010484Y006967D01*
X010505Y006968D01*
X010526Y006965D01*
X010546Y006959D01*
X010565Y006948D01*
X010582Y006935D01*
X010595Y006919D01*
X010606Y006901D01*
X010614Y006881D01*
X010618Y006861D01*
X010618Y006839D01*
X010614Y006819D01*
X010606Y006799D01*
X010595Y006781D01*
X010582Y006765D01*
X010565Y006752D01*
X010546Y006741D01*
X010526Y006735D01*
X010505Y006732D01*
X010484Y006733D01*
X010464Y006738D01*
X010444Y006746D01*
X010426Y006758D01*
X010411Y006772D01*
X010399Y006789D01*
X010390Y006809D01*
X010384Y006829D01*
X010382Y006850D01*
X010382Y006700D02*
X010384Y006721D01*
X010390Y006741D01*
X010399Y006761D01*
X010411Y006778D01*
X010426Y006792D01*
X010444Y006804D01*
X010464Y006812D01*
X010484Y006817D01*
X010505Y006818D01*
X010526Y006815D01*
X010546Y006809D01*
X010565Y006798D01*
X010582Y006785D01*
X010595Y006769D01*
X010606Y006751D01*
X010614Y006731D01*
X010618Y006711D01*
X010618Y006689D01*
X010614Y006669D01*
X010606Y006649D01*
X010595Y006631D01*
X010582Y006615D01*
X010565Y006602D01*
X010546Y006591D01*
X010526Y006585D01*
X010505Y006582D01*
X010484Y006583D01*
X010464Y006588D01*
X010444Y006596D01*
X010426Y006608D01*
X010411Y006622D01*
X010399Y006639D01*
X010390Y006659D01*
X010384Y006679D01*
X010382Y006700D01*
X010382Y006550D02*
X010384Y006571D01*
X010390Y006591D01*
X010399Y006611D01*
X010411Y006628D01*
X010426Y006642D01*
X010444Y006654D01*
X010464Y006662D01*
X010484Y006667D01*
X010505Y006668D01*
X010526Y006665D01*
X010546Y006659D01*
X010565Y006648D01*
X010582Y006635D01*
X010595Y006619D01*
X010606Y006601D01*
X010614Y006581D01*
X010618Y006561D01*
X010618Y006539D01*
X010614Y006519D01*
X010606Y006499D01*
X010595Y006481D01*
X010582Y006465D01*
X010565Y006452D01*
X010546Y006441D01*
X010526Y006435D01*
X010505Y006432D01*
X010484Y006433D01*
X010464Y006438D01*
X010444Y006446D01*
X010426Y006458D01*
X010411Y006472D01*
X010399Y006489D01*
X010390Y006509D01*
X010384Y006529D01*
X010382Y006550D01*
X010382Y006450D02*
X010384Y006471D01*
X010390Y006491D01*
X010399Y006511D01*
X010411Y006528D01*
X010426Y006542D01*
X010444Y006554D01*
X010464Y006562D01*
X010484Y006567D01*
X010505Y006568D01*
X010526Y006565D01*
X010546Y006559D01*
X010565Y006548D01*
X010582Y006535D01*
X010595Y006519D01*
X010606Y006501D01*
X010614Y006481D01*
X010618Y006461D01*
X010618Y006439D01*
X010614Y006419D01*
X010606Y006399D01*
X010595Y006381D01*
X010582Y006365D01*
X010565Y006352D01*
X010546Y006341D01*
X010526Y006335D01*
X010505Y006332D01*
X010484Y006333D01*
X010464Y006338D01*
X010444Y006346D01*
X010426Y006358D01*
X010411Y006372D01*
X010399Y006389D01*
X010390Y006409D01*
X010384Y006429D01*
X010382Y006450D01*
X010382Y006300D02*
X010384Y006321D01*
X010390Y006341D01*
X010399Y006361D01*
X010411Y006378D01*
X010426Y006392D01*
X010444Y006404D01*
X010464Y006412D01*
X010484Y006417D01*
X010505Y006418D01*
X010526Y006415D01*
X010546Y006409D01*
X010565Y006398D01*
X010582Y006385D01*
X010595Y006369D01*
X010606Y006351D01*
X010614Y006331D01*
X010618Y006311D01*
X010618Y006289D01*
X010614Y006269D01*
X010606Y006249D01*
X010595Y006231D01*
X010582Y006215D01*
X010565Y006202D01*
X010546Y006191D01*
X010526Y006185D01*
X010505Y006182D01*
X010484Y006183D01*
X010464Y006188D01*
X010444Y006196D01*
X010426Y006208D01*
X010411Y006222D01*
X010399Y006239D01*
X010390Y006259D01*
X010384Y006279D01*
X010382Y006300D01*
X010382Y006200D02*
X010384Y006221D01*
X010390Y006241D01*
X010399Y006261D01*
X010411Y006278D01*
X010426Y006292D01*
X010444Y006304D01*
X010464Y006312D01*
X010484Y006317D01*
X010505Y006318D01*
X010526Y006315D01*
X010546Y006309D01*
X010565Y006298D01*
X010582Y006285D01*
X010595Y006269D01*
X010606Y006251D01*
X010614Y006231D01*
X010618Y006211D01*
X010618Y006189D01*
X010614Y006169D01*
X010606Y006149D01*
X010595Y006131D01*
X010582Y006115D01*
X010565Y006102D01*
X010546Y006091D01*
X010526Y006085D01*
X010505Y006082D01*
X010484Y006083D01*
X010464Y006088D01*
X010444Y006096D01*
X010426Y006108D01*
X010411Y006122D01*
X010399Y006139D01*
X010390Y006159D01*
X010384Y006179D01*
X010382Y006200D01*
X010382Y006050D02*
X010384Y006071D01*
X010390Y006091D01*
X010399Y006111D01*
X010411Y006128D01*
X010426Y006142D01*
X010444Y006154D01*
X010464Y006162D01*
X010484Y006167D01*
X010505Y006168D01*
X010526Y006165D01*
X010546Y006159D01*
X010565Y006148D01*
X010582Y006135D01*
X010595Y006119D01*
X010606Y006101D01*
X010614Y006081D01*
X010618Y006061D01*
X010618Y006039D01*
X010614Y006019D01*
X010606Y005999D01*
X010595Y005981D01*
X010582Y005965D01*
X010565Y005952D01*
X010546Y005941D01*
X010526Y005935D01*
X010505Y005932D01*
X010484Y005933D01*
X010464Y005938D01*
X010444Y005946D01*
X010426Y005958D01*
X010411Y005972D01*
X010399Y005989D01*
X010390Y006009D01*
X010384Y006029D01*
X010382Y006050D01*
X010382Y005950D02*
X010384Y005971D01*
X010390Y005991D01*
X010399Y006011D01*
X010411Y006028D01*
X010426Y006042D01*
X010444Y006054D01*
X010464Y006062D01*
X010484Y006067D01*
X010505Y006068D01*
X010526Y006065D01*
X010546Y006059D01*
X010565Y006048D01*
X010582Y006035D01*
X010595Y006019D01*
X010606Y006001D01*
X010614Y005981D01*
X010618Y005961D01*
X010618Y005939D01*
X010614Y005919D01*
X010606Y005899D01*
X010595Y005881D01*
X010582Y005865D01*
X010565Y005852D01*
X010546Y005841D01*
X010526Y005835D01*
X010505Y005832D01*
X010484Y005833D01*
X010464Y005838D01*
X010444Y005846D01*
X010426Y005858D01*
X010411Y005872D01*
X010399Y005889D01*
X010390Y005909D01*
X010384Y005929D01*
X010382Y005950D01*
X011108Y006600D02*
X011110Y006644D01*
X011116Y006688D01*
X011126Y006731D01*
X011139Y006773D01*
X011157Y006813D01*
X011178Y006852D01*
X011202Y006889D01*
X011229Y006924D01*
X011260Y006956D01*
X011293Y006985D01*
X011329Y007011D01*
X011367Y007033D01*
X011407Y007052D01*
X011448Y007068D01*
X011491Y007080D01*
X011534Y007088D01*
X011578Y007092D01*
X011622Y007092D01*
X011666Y007088D01*
X011709Y007080D01*
X011752Y007068D01*
X011793Y007052D01*
X011833Y007033D01*
X011871Y007011D01*
X011907Y006985D01*
X011940Y006956D01*
X011971Y006924D01*
X011998Y006889D01*
X012022Y006852D01*
X012043Y006813D01*
X012061Y006773D01*
X012074Y006731D01*
X012084Y006688D01*
X012090Y006644D01*
X012092Y006600D01*
X012090Y006556D01*
X012084Y006512D01*
X012074Y006469D01*
X012061Y006427D01*
X012043Y006387D01*
X012022Y006348D01*
X011998Y006311D01*
X011971Y006276D01*
X011940Y006244D01*
X011907Y006215D01*
X011871Y006189D01*
X011833Y006167D01*
X011793Y006148D01*
X011752Y006132D01*
X011709Y006120D01*
X011666Y006112D01*
X011622Y006108D01*
X011578Y006108D01*
X011534Y006112D01*
X011491Y006120D01*
X011448Y006132D01*
X011407Y006148D01*
X011367Y006167D01*
X011329Y006189D01*
X011293Y006215D01*
X011260Y006244D01*
X011229Y006276D01*
X011202Y006311D01*
X011178Y006348D01*
X011157Y006387D01*
X011139Y006427D01*
X011126Y006469D01*
X011116Y006512D01*
X011110Y006556D01*
X011108Y006600D01*
X012582Y006550D02*
X012584Y006571D01*
X012590Y006591D01*
X012599Y006611D01*
X012611Y006628D01*
X012626Y006642D01*
X012644Y006654D01*
X012664Y006662D01*
X012684Y006667D01*
X012705Y006668D01*
X012726Y006665D01*
X012746Y006659D01*
X012765Y006648D01*
X012782Y006635D01*
X012795Y006619D01*
X012806Y006601D01*
X012814Y006581D01*
X012818Y006561D01*
X012818Y006539D01*
X012814Y006519D01*
X012806Y006499D01*
X012795Y006481D01*
X012782Y006465D01*
X012765Y006452D01*
X012746Y006441D01*
X012726Y006435D01*
X012705Y006432D01*
X012684Y006433D01*
X012664Y006438D01*
X012644Y006446D01*
X012626Y006458D01*
X012611Y006472D01*
X012599Y006489D01*
X012590Y006509D01*
X012584Y006529D01*
X012582Y006550D01*
X012582Y006450D02*
X012584Y006471D01*
X012590Y006491D01*
X012599Y006511D01*
X012611Y006528D01*
X012626Y006542D01*
X012644Y006554D01*
X012664Y006562D01*
X012684Y006567D01*
X012705Y006568D01*
X012726Y006565D01*
X012746Y006559D01*
X012765Y006548D01*
X012782Y006535D01*
X012795Y006519D01*
X012806Y006501D01*
X012814Y006481D01*
X012818Y006461D01*
X012818Y006439D01*
X012814Y006419D01*
X012806Y006399D01*
X012795Y006381D01*
X012782Y006365D01*
X012765Y006352D01*
X012746Y006341D01*
X012726Y006335D01*
X012705Y006332D01*
X012684Y006333D01*
X012664Y006338D01*
X012644Y006346D01*
X012626Y006358D01*
X012611Y006372D01*
X012599Y006389D01*
X012590Y006409D01*
X012584Y006429D01*
X012582Y006450D01*
X012582Y006300D02*
X012584Y006321D01*
X012590Y006341D01*
X012599Y006361D01*
X012611Y006378D01*
X012626Y006392D01*
X012644Y006404D01*
X012664Y006412D01*
X012684Y006417D01*
X012705Y006418D01*
X012726Y006415D01*
X012746Y006409D01*
X012765Y006398D01*
X012782Y006385D01*
X012795Y006369D01*
X012806Y006351D01*
X012814Y006331D01*
X012818Y006311D01*
X012818Y006289D01*
X012814Y006269D01*
X012806Y006249D01*
X012795Y006231D01*
X012782Y006215D01*
X012765Y006202D01*
X012746Y006191D01*
X012726Y006185D01*
X012705Y006182D01*
X012684Y006183D01*
X012664Y006188D01*
X012644Y006196D01*
X012626Y006208D01*
X012611Y006222D01*
X012599Y006239D01*
X012590Y006259D01*
X012584Y006279D01*
X012582Y006300D01*
X012582Y006200D02*
X012584Y006221D01*
X012590Y006241D01*
X012599Y006261D01*
X012611Y006278D01*
X012626Y006292D01*
X012644Y006304D01*
X012664Y006312D01*
X012684Y006317D01*
X012705Y006318D01*
X012726Y006315D01*
X012746Y006309D01*
X012765Y006298D01*
X012782Y006285D01*
X012795Y006269D01*
X012806Y006251D01*
X012814Y006231D01*
X012818Y006211D01*
X012818Y006189D01*
X012814Y006169D01*
X012806Y006149D01*
X012795Y006131D01*
X012782Y006115D01*
X012765Y006102D01*
X012746Y006091D01*
X012726Y006085D01*
X012705Y006082D01*
X012684Y006083D01*
X012664Y006088D01*
X012644Y006096D01*
X012626Y006108D01*
X012611Y006122D01*
X012599Y006139D01*
X012590Y006159D01*
X012584Y006179D01*
X012582Y006200D01*
X012582Y006050D02*
X012584Y006071D01*
X012590Y006091D01*
X012599Y006111D01*
X012611Y006128D01*
X012626Y006142D01*
X012644Y006154D01*
X012664Y006162D01*
X012684Y006167D01*
X012705Y006168D01*
X012726Y006165D01*
X012746Y006159D01*
X012765Y006148D01*
X012782Y006135D01*
X012795Y006119D01*
X012806Y006101D01*
X012814Y006081D01*
X012818Y006061D01*
X012818Y006039D01*
X012814Y006019D01*
X012806Y005999D01*
X012795Y005981D01*
X012782Y005965D01*
X012765Y005952D01*
X012746Y005941D01*
X012726Y005935D01*
X012705Y005932D01*
X012684Y005933D01*
X012664Y005938D01*
X012644Y005946D01*
X012626Y005958D01*
X012611Y005972D01*
X012599Y005989D01*
X012590Y006009D01*
X012584Y006029D01*
X012582Y006050D01*
X012582Y005950D02*
X012584Y005971D01*
X012590Y005991D01*
X012599Y006011D01*
X012611Y006028D01*
X012626Y006042D01*
X012644Y006054D01*
X012664Y006062D01*
X012684Y006067D01*
X012705Y006068D01*
X012726Y006065D01*
X012746Y006059D01*
X012765Y006048D01*
X012782Y006035D01*
X012795Y006019D01*
X012806Y006001D01*
X012814Y005981D01*
X012818Y005961D01*
X012818Y005939D01*
X012814Y005919D01*
X012806Y005899D01*
X012795Y005881D01*
X012782Y005865D01*
X012765Y005852D01*
X012746Y005841D01*
X012726Y005835D01*
X012705Y005832D01*
X012684Y005833D01*
X012664Y005838D01*
X012644Y005846D01*
X012626Y005858D01*
X012611Y005872D01*
X012599Y005889D01*
X012590Y005909D01*
X012584Y005929D01*
X012582Y005950D01*
X012582Y006700D02*
X012584Y006721D01*
X012590Y006741D01*
X012599Y006761D01*
X012611Y006778D01*
X012626Y006792D01*
X012644Y006804D01*
X012664Y006812D01*
X012684Y006817D01*
X012705Y006818D01*
X012726Y006815D01*
X012746Y006809D01*
X012765Y006798D01*
X012782Y006785D01*
X012795Y006769D01*
X012806Y006751D01*
X012814Y006731D01*
X012818Y006711D01*
X012818Y006689D01*
X012814Y006669D01*
X012806Y006649D01*
X012795Y006631D01*
X012782Y006615D01*
X012765Y006602D01*
X012746Y006591D01*
X012726Y006585D01*
X012705Y006582D01*
X012684Y006583D01*
X012664Y006588D01*
X012644Y006596D01*
X012626Y006608D01*
X012611Y006622D01*
X012599Y006639D01*
X012590Y006659D01*
X012584Y006679D01*
X012582Y006700D01*
X012582Y006850D02*
X012584Y006871D01*
X012590Y006891D01*
X012599Y006911D01*
X012611Y006928D01*
X012626Y006942D01*
X012644Y006954D01*
X012664Y006962D01*
X012684Y006967D01*
X012705Y006968D01*
X012726Y006965D01*
X012746Y006959D01*
X012765Y006948D01*
X012782Y006935D01*
X012795Y006919D01*
X012806Y006901D01*
X012814Y006881D01*
X012818Y006861D01*
X012818Y006839D01*
X012814Y006819D01*
X012806Y006799D01*
X012795Y006781D01*
X012782Y006765D01*
X012765Y006752D01*
X012746Y006741D01*
X012726Y006735D01*
X012705Y006732D01*
X012684Y006733D01*
X012664Y006738D01*
X012644Y006746D01*
X012626Y006758D01*
X012611Y006772D01*
X012599Y006789D01*
X012590Y006809D01*
X012584Y006829D01*
X012582Y006850D01*
X012582Y007000D02*
X012584Y007021D01*
X012590Y007041D01*
X012599Y007061D01*
X012611Y007078D01*
X012626Y007092D01*
X012644Y007104D01*
X012664Y007112D01*
X012684Y007117D01*
X012705Y007118D01*
X012726Y007115D01*
X012746Y007109D01*
X012765Y007098D01*
X012782Y007085D01*
X012795Y007069D01*
X012806Y007051D01*
X012814Y007031D01*
X012818Y007011D01*
X012818Y006989D01*
X012814Y006969D01*
X012806Y006949D01*
X012795Y006931D01*
X012782Y006915D01*
X012765Y006902D01*
X012746Y006891D01*
X012726Y006885D01*
X012705Y006882D01*
X012684Y006883D01*
X012664Y006888D01*
X012644Y006896D01*
X012626Y006908D01*
X012611Y006922D01*
X012599Y006939D01*
X012590Y006959D01*
X012584Y006979D01*
X012582Y007000D01*
X012582Y007100D02*
X012584Y007121D01*
X012590Y007141D01*
X012599Y007161D01*
X012611Y007178D01*
X012626Y007192D01*
X012644Y007204D01*
X012664Y007212D01*
X012684Y007217D01*
X012705Y007218D01*
X012726Y007215D01*
X012746Y007209D01*
X012765Y007198D01*
X012782Y007185D01*
X012795Y007169D01*
X012806Y007151D01*
X012814Y007131D01*
X012818Y007111D01*
X012818Y007089D01*
X012814Y007069D01*
X012806Y007049D01*
X012795Y007031D01*
X012782Y007015D01*
X012765Y007002D01*
X012746Y006991D01*
X012726Y006985D01*
X012705Y006982D01*
X012684Y006983D01*
X012664Y006988D01*
X012644Y006996D01*
X012626Y007008D01*
X012611Y007022D01*
X012599Y007039D01*
X012590Y007059D01*
X012584Y007079D01*
X012582Y007100D01*
X012582Y007250D02*
X012584Y007271D01*
X012590Y007291D01*
X012599Y007311D01*
X012611Y007328D01*
X012626Y007342D01*
X012644Y007354D01*
X012664Y007362D01*
X012684Y007367D01*
X012705Y007368D01*
X012726Y007365D01*
X012746Y007359D01*
X012765Y007348D01*
X012782Y007335D01*
X012795Y007319D01*
X012806Y007301D01*
X012814Y007281D01*
X012818Y007261D01*
X012818Y007239D01*
X012814Y007219D01*
X012806Y007199D01*
X012795Y007181D01*
X012782Y007165D01*
X012765Y007152D01*
X012746Y007141D01*
X012726Y007135D01*
X012705Y007132D01*
X012684Y007133D01*
X012664Y007138D01*
X012644Y007146D01*
X012626Y007158D01*
X012611Y007172D01*
X012599Y007189D01*
X012590Y007209D01*
X012584Y007229D01*
X012582Y007250D01*
D11*
X012683Y006600D03*
X010517Y006600D03*
X004683Y006600D03*
X002517Y006600D03*
D12*
X002517Y006600D03*
X004683Y006600D03*
X010517Y006600D03*
X012683Y006600D03*
D13*
X008100Y006600D03*
X007100Y006600D03*
M02*
