%
M48
M72
T01C0.0400
T02C0.1260
%
T01
X4100Y2100
X5100Y2100
X6100Y2100
X7100Y2100
X8100Y2100
X9100Y2100
X10100Y2100
X11100Y2100
T02
X3100Y15100
X3100Y30100
X3100Y45100
X3100Y60100
X3100Y75100
X3100Y90100
X3100Y105100
X12100Y105100
X12100Y90100
X12100Y75100
X12100Y60100
X12100Y45100
X12100Y30100
X12100Y15100
M30
