G75*
G70*
%OFA0B0*%
%FSLAX24Y24*%
%IPPOS*%
%LPD*%
%AMOC8*
5,1,8,0,0,1.08239X$1,22.5*
%
%ADD10C,0.0060*%
%ADD11C,0.0080*%
D10*
X002130Y000844D02*
X002344Y000630D01*
X002557Y000844D01*
X002557Y001271D01*
X002775Y001164D02*
X002775Y000737D01*
X002881Y000630D01*
X003095Y000630D01*
X003202Y000737D01*
X003419Y000737D02*
X003526Y000630D01*
X003739Y000630D01*
X003846Y000737D01*
X003846Y001164D02*
X003739Y001271D01*
X003526Y001271D01*
X003419Y001164D01*
X003419Y000737D01*
X003202Y001164D02*
X003095Y001271D01*
X002881Y001271D01*
X002775Y001164D01*
X002130Y001271D02*
X002130Y000844D01*
X004880Y000737D02*
X004880Y000630D01*
X004880Y000737D02*
X005307Y001164D01*
X005307Y001271D01*
X004880Y001271D01*
X005880Y000950D02*
X006200Y000950D01*
X006307Y000844D01*
X006307Y000737D01*
X006200Y000630D01*
X005987Y000630D01*
X005880Y000737D01*
X005880Y000950D01*
X006094Y001164D01*
X006307Y001271D01*
X006880Y001271D02*
X006880Y000950D01*
X007094Y001057D01*
X007200Y001057D01*
X007307Y000950D01*
X007307Y000737D01*
X007200Y000630D01*
X006987Y000630D01*
X006880Y000737D01*
X006880Y001271D02*
X007307Y001271D01*
X007880Y000950D02*
X008307Y000950D01*
X008200Y000630D02*
X008200Y001271D01*
X007880Y000950D01*
X008880Y000737D02*
X008987Y000630D01*
X009200Y000630D01*
X009307Y000737D01*
X009307Y000844D01*
X009200Y000950D01*
X009094Y000950D01*
X009200Y000950D02*
X009307Y001057D01*
X009307Y001164D01*
X009200Y001271D01*
X008987Y001271D01*
X008880Y001164D01*
X009880Y001164D02*
X009987Y001271D01*
X010200Y001271D01*
X010307Y001164D01*
X010307Y001057D01*
X009880Y000630D01*
X010307Y000630D01*
X010880Y000630D02*
X011307Y000630D01*
X011094Y000630D02*
X011094Y001271D01*
X010880Y001057D01*
X010213Y108523D02*
X009786Y108523D01*
X009569Y108630D02*
X009142Y108630D01*
X009569Y109057D01*
X009569Y109164D01*
X009462Y109271D01*
X009249Y109271D01*
X009142Y109164D01*
X008924Y109057D02*
X008711Y108630D01*
X008497Y109057D01*
X008280Y108523D02*
X007853Y108523D01*
X007635Y108844D02*
X007208Y108844D01*
X007208Y108950D02*
X007315Y109057D01*
X007528Y109057D01*
X007635Y108950D01*
X007635Y108844D01*
X007528Y108630D02*
X007315Y108630D01*
X007208Y108737D01*
X007208Y108950D01*
X006991Y108950D02*
X006884Y109057D01*
X006564Y109057D01*
X006564Y109271D02*
X006564Y108630D01*
X006884Y108630D01*
X006991Y108737D01*
X006991Y108950D01*
X006346Y109057D02*
X006346Y108630D01*
X006026Y108630D01*
X005919Y108737D01*
X005919Y109057D01*
X005702Y109164D02*
X005595Y109271D01*
X005381Y109271D01*
X005275Y109164D01*
X005275Y108737D01*
X005381Y108630D01*
X005595Y108630D01*
X005702Y108737D01*
X005057Y108737D02*
X005057Y109271D01*
X005057Y108737D02*
X004950Y108630D01*
X004737Y108630D01*
X004630Y108737D01*
X004630Y109271D01*
X010431Y109271D02*
X010858Y109271D01*
X010644Y109271D02*
X010644Y108630D01*
X011075Y108630D02*
X011503Y109057D01*
X011503Y109164D01*
X011396Y109271D01*
X011182Y109271D01*
X011075Y109164D01*
X011075Y108630D02*
X011503Y108630D01*
D11*
X011350Y002600D02*
X010850Y002600D01*
X010600Y002350D01*
X010350Y002600D01*
X009850Y002600D01*
X009600Y002350D01*
X009350Y002600D01*
X008850Y002600D01*
X008600Y002350D01*
X008350Y002600D01*
X007850Y002600D01*
X007600Y002350D01*
X007350Y002600D01*
X006850Y002600D01*
X006600Y002350D01*
X006350Y002600D01*
X005850Y002600D01*
X005600Y002350D01*
X005350Y002600D01*
X004850Y002600D01*
X004600Y002350D01*
X004350Y002600D01*
X003850Y002600D01*
X003600Y002350D01*
X003600Y001850D01*
X003850Y001600D01*
X004350Y001600D01*
X004600Y001850D01*
X004850Y001600D01*
X005350Y001600D01*
X005600Y001850D01*
X005850Y001600D01*
X006350Y001600D01*
X006600Y001850D01*
X006850Y001600D01*
X007350Y001600D01*
X007600Y001850D01*
X007850Y001600D01*
X008350Y001600D01*
X008600Y001850D01*
X008850Y001600D01*
X009350Y001600D01*
X009600Y001850D01*
X009850Y001600D01*
X010350Y001600D01*
X010600Y001850D01*
X010850Y001600D01*
X011350Y001600D01*
X011600Y001850D01*
X011600Y002350D01*
X011350Y002600D01*
M02*
