G75*
G70*
%OFA0B0*%
%FSLAX24Y24*%
%IPPOS*%
%LPD*%
%AMOC8*
5,1,8,0,0,1.08239X$1,22.5*
%
%ADD10C,0.0740*%
%ADD11R,0.0740X0.0740*%
%ADD12C,0.0200*%
D10*
X003100Y015100D03*
X004600Y002100D03*
X005600Y002100D03*
X006600Y002100D03*
X007600Y002100D03*
X008600Y002100D03*
X009600Y002100D03*
X010600Y002100D03*
X012100Y015100D03*
X012100Y030100D03*
X012100Y045100D03*
X012100Y060100D03*
X012100Y075100D03*
X012100Y090100D03*
X012100Y105100D03*
X003100Y105100D03*
X003100Y090100D03*
X003100Y075100D03*
X003100Y060100D03*
X003100Y045100D03*
X003100Y030100D03*
D11*
X011600Y002100D03*
D12*
X010600Y002100D02*
X010600Y029100D01*
X012100Y030100D01*
X009600Y043100D02*
X012100Y045100D01*
X008600Y058100D02*
X012100Y060100D01*
X007600Y073100D02*
X012100Y075100D01*
X006600Y088100D02*
X012100Y090100D01*
X005600Y102600D02*
X012100Y105100D01*
X007600Y073100D02*
X007600Y002100D01*
X008600Y002100D02*
X008600Y058100D01*
X009600Y043100D02*
X009600Y002100D01*
X006600Y002100D02*
X006600Y088100D01*
X005600Y102600D02*
X005600Y002100D01*
M02*
