G75*
G70*
%OFA0B0*%
%FSLAX24Y24*%
%IPPOS*%
%LPD*%
%AMOC8*
5,1,8,0,0,1.08239X$1,22.5*
%
%ADD10C,0.0060*%
%ADD11C,0.0080*%
D10*
X002880Y000844D02*
X003094Y000630D01*
X003307Y000844D01*
X003307Y001271D01*
X003525Y001164D02*
X003525Y000737D01*
X003631Y000630D01*
X003845Y000630D01*
X003952Y000737D01*
X004169Y000737D02*
X004276Y000630D01*
X004489Y000630D01*
X004596Y000737D01*
X004596Y001164D02*
X004489Y001271D01*
X004276Y001271D01*
X004169Y001164D01*
X004169Y000737D01*
X003952Y001164D02*
X003845Y001271D01*
X003631Y001271D01*
X003525Y001164D01*
X002880Y001271D02*
X002880Y000844D01*
X005380Y000630D02*
X005807Y001057D01*
X005807Y001164D01*
X005700Y001271D01*
X005487Y001271D01*
X005380Y001164D01*
X005380Y000630D02*
X005807Y000630D01*
X006380Y000737D02*
X006487Y000630D01*
X006700Y000630D01*
X006807Y000737D01*
X006807Y000844D01*
X006700Y000950D01*
X006594Y000950D01*
X006700Y000950D02*
X006807Y001057D01*
X006807Y001164D01*
X006700Y001271D01*
X006487Y001271D01*
X006380Y001164D01*
X007380Y000950D02*
X007807Y000950D01*
X007700Y000630D02*
X007700Y001271D01*
X007380Y000950D01*
X008380Y000950D02*
X008594Y001057D01*
X008700Y001057D01*
X008807Y000950D01*
X008807Y000737D01*
X008700Y000630D01*
X008487Y000630D01*
X008380Y000737D01*
X008380Y000950D02*
X008380Y001271D01*
X008807Y001271D01*
X009380Y000950D02*
X009700Y000950D01*
X009807Y000844D01*
X009807Y000737D01*
X009700Y000630D01*
X009487Y000630D01*
X009380Y000737D01*
X009380Y000950D01*
X009594Y001164D01*
X009807Y001271D01*
X010380Y001271D02*
X010807Y001271D01*
X010807Y001164D01*
X010380Y000737D01*
X010380Y000630D01*
X011380Y000737D02*
X011380Y000844D01*
X011487Y000950D01*
X011700Y000950D01*
X011807Y000844D01*
X011807Y000737D01*
X011700Y000630D01*
X011487Y000630D01*
X011380Y000737D01*
X011487Y000950D02*
X011380Y001057D01*
X011380Y001164D01*
X011487Y001271D01*
X011700Y001271D01*
X011807Y001164D01*
X011807Y001057D01*
X011700Y000950D01*
D11*
X002850Y014600D02*
X002600Y014850D01*
X002600Y015350D01*
X002850Y015600D01*
X003350Y015600D01*
X003600Y015350D01*
X003600Y014850D01*
X003350Y014600D01*
X002850Y014600D01*
X004350Y002600D02*
X004100Y002350D01*
X004100Y001850D01*
X004350Y001600D01*
X004850Y001600D01*
X005100Y001850D01*
X005350Y001600D01*
X005850Y001600D01*
X006100Y001850D01*
X006350Y001600D01*
X006850Y001600D01*
X007100Y001850D01*
X007350Y001600D01*
X007850Y001600D01*
X008100Y001850D01*
X008350Y001600D01*
X008850Y001600D01*
X009100Y001850D01*
X009350Y001600D01*
X009850Y001600D01*
X010100Y001850D01*
X010350Y001600D01*
X010850Y001600D01*
X011100Y001850D01*
X011350Y001600D01*
X011850Y001600D01*
X012100Y001850D01*
X012100Y002350D01*
X011850Y002600D01*
X011350Y002600D01*
X011100Y002350D01*
X010850Y002600D01*
X010350Y002600D01*
X010100Y002350D01*
X009850Y002600D01*
X009350Y002600D01*
X009100Y002350D01*
X008850Y002600D01*
X008350Y002600D01*
X008100Y002350D01*
X007850Y002600D01*
X007350Y002600D01*
X007100Y002350D01*
X006850Y002600D01*
X006350Y002600D01*
X006100Y002350D01*
X005850Y002600D01*
X005350Y002600D01*
X005100Y002350D01*
X004850Y002600D01*
X004350Y002600D01*
X003350Y029600D02*
X002850Y029600D01*
X002600Y029850D01*
X002600Y030350D01*
X002850Y030600D01*
X003350Y030600D01*
X003600Y030350D01*
X003600Y029850D01*
X003350Y029600D01*
X003350Y044600D02*
X002850Y044600D01*
X002600Y044850D01*
X002600Y045350D01*
X002850Y045600D01*
X003350Y045600D01*
X003600Y045350D01*
X003600Y044850D01*
X003350Y044600D01*
X003350Y059600D02*
X002850Y059600D01*
X002600Y059850D01*
X002600Y060350D01*
X002850Y060600D01*
X003350Y060600D01*
X003600Y060350D01*
X003600Y059850D01*
X003350Y059600D01*
X003350Y074600D02*
X002850Y074600D01*
X002600Y074850D01*
X002600Y075350D01*
X002850Y075600D01*
X003350Y075600D01*
X003600Y075350D01*
X003600Y074850D01*
X003350Y074600D01*
X003350Y089600D02*
X002850Y089600D01*
X002600Y089850D01*
X002600Y090350D01*
X002850Y090600D01*
X003350Y090600D01*
X003600Y090350D01*
X003600Y089850D01*
X003350Y089600D01*
X003350Y104600D02*
X002850Y104600D01*
X002600Y104850D01*
X002600Y105350D01*
X002850Y105600D01*
X003350Y105600D01*
X003600Y105350D01*
X003600Y104850D01*
X003350Y104600D01*
X011600Y104850D02*
X011850Y104600D01*
X012350Y104600D01*
X012600Y104850D01*
X012600Y105350D01*
X012350Y105600D01*
X011850Y105600D01*
X011600Y105350D01*
X011600Y104850D01*
X011850Y090600D02*
X011600Y090350D01*
X011600Y089850D01*
X011850Y089600D01*
X012350Y089600D01*
X012600Y089850D01*
X012600Y090350D01*
X012350Y090600D01*
X011850Y090600D01*
X011850Y075600D02*
X011600Y075350D01*
X011600Y074850D01*
X011850Y074600D01*
X012350Y074600D01*
X012600Y074850D01*
X012600Y075350D01*
X012350Y075600D01*
X011850Y075600D01*
X011850Y060600D02*
X011600Y060350D01*
X011600Y059850D01*
X011850Y059600D01*
X012350Y059600D01*
X012600Y059850D01*
X012600Y060350D01*
X012350Y060600D01*
X011850Y060600D01*
X011850Y045600D02*
X011600Y045350D01*
X011600Y044850D01*
X011850Y044600D01*
X012350Y044600D01*
X012600Y044850D01*
X012600Y045350D01*
X012350Y045600D01*
X011850Y045600D01*
X011850Y030600D02*
X011600Y030350D01*
X011600Y029850D01*
X011850Y029600D01*
X012350Y029600D01*
X012600Y029850D01*
X012600Y030350D01*
X012350Y030600D01*
X011850Y030600D01*
X011850Y015600D02*
X011600Y015350D01*
X011600Y014850D01*
X011850Y014600D01*
X012350Y014600D01*
X012600Y014850D01*
X012600Y015350D01*
X012350Y015600D01*
X011850Y015600D01*
M02*
