G75*
G70*
%OFA0B0*%
%FSLAX24Y24*%
%IPPOS*%
%LPD*%
%AMOC8*
5,1,8,0,0,1.08239X$1,22.5*
%
%ADD10C,0.0000*%
%ADD11C,0.0740*%
%ADD12R,0.0740X0.0740*%
%ADD13C,0.0400*%
%ADD14C,0.0200*%
D10*
X000100Y000100D02*
X000100Y109970D01*
X015092Y109970D01*
X015092Y000100D01*
X000100Y000100D01*
X002470Y015100D02*
X002472Y015150D01*
X002478Y015200D01*
X002488Y015249D01*
X002502Y015297D01*
X002519Y015344D01*
X002540Y015389D01*
X002565Y015433D01*
X002593Y015474D01*
X002625Y015513D01*
X002659Y015550D01*
X002696Y015584D01*
X002736Y015614D01*
X002778Y015641D01*
X002822Y015665D01*
X002868Y015686D01*
X002915Y015702D01*
X002963Y015715D01*
X003013Y015724D01*
X003062Y015729D01*
X003113Y015730D01*
X003163Y015727D01*
X003212Y015720D01*
X003261Y015709D01*
X003309Y015694D01*
X003355Y015676D01*
X003400Y015654D01*
X003443Y015628D01*
X003484Y015599D01*
X003523Y015567D01*
X003559Y015532D01*
X003591Y015494D01*
X003621Y015454D01*
X003648Y015411D01*
X003671Y015367D01*
X003690Y015321D01*
X003706Y015273D01*
X003718Y015224D01*
X003726Y015175D01*
X003730Y015125D01*
X003730Y015075D01*
X003726Y015025D01*
X003718Y014976D01*
X003706Y014927D01*
X003690Y014879D01*
X003671Y014833D01*
X003648Y014789D01*
X003621Y014746D01*
X003591Y014706D01*
X003559Y014668D01*
X003523Y014633D01*
X003484Y014601D01*
X003443Y014572D01*
X003400Y014546D01*
X003355Y014524D01*
X003309Y014506D01*
X003261Y014491D01*
X003212Y014480D01*
X003163Y014473D01*
X003113Y014470D01*
X003062Y014471D01*
X003013Y014476D01*
X002963Y014485D01*
X002915Y014498D01*
X002868Y014514D01*
X002822Y014535D01*
X002778Y014559D01*
X002736Y014586D01*
X002696Y014616D01*
X002659Y014650D01*
X002625Y014687D01*
X002593Y014726D01*
X002565Y014767D01*
X002540Y014811D01*
X002519Y014856D01*
X002502Y014903D01*
X002488Y014951D01*
X002478Y015000D01*
X002472Y015050D01*
X002470Y015100D01*
X002470Y030100D02*
X002472Y030150D01*
X002478Y030200D01*
X002488Y030249D01*
X002502Y030297D01*
X002519Y030344D01*
X002540Y030389D01*
X002565Y030433D01*
X002593Y030474D01*
X002625Y030513D01*
X002659Y030550D01*
X002696Y030584D01*
X002736Y030614D01*
X002778Y030641D01*
X002822Y030665D01*
X002868Y030686D01*
X002915Y030702D01*
X002963Y030715D01*
X003013Y030724D01*
X003062Y030729D01*
X003113Y030730D01*
X003163Y030727D01*
X003212Y030720D01*
X003261Y030709D01*
X003309Y030694D01*
X003355Y030676D01*
X003400Y030654D01*
X003443Y030628D01*
X003484Y030599D01*
X003523Y030567D01*
X003559Y030532D01*
X003591Y030494D01*
X003621Y030454D01*
X003648Y030411D01*
X003671Y030367D01*
X003690Y030321D01*
X003706Y030273D01*
X003718Y030224D01*
X003726Y030175D01*
X003730Y030125D01*
X003730Y030075D01*
X003726Y030025D01*
X003718Y029976D01*
X003706Y029927D01*
X003690Y029879D01*
X003671Y029833D01*
X003648Y029789D01*
X003621Y029746D01*
X003591Y029706D01*
X003559Y029668D01*
X003523Y029633D01*
X003484Y029601D01*
X003443Y029572D01*
X003400Y029546D01*
X003355Y029524D01*
X003309Y029506D01*
X003261Y029491D01*
X003212Y029480D01*
X003163Y029473D01*
X003113Y029470D01*
X003062Y029471D01*
X003013Y029476D01*
X002963Y029485D01*
X002915Y029498D01*
X002868Y029514D01*
X002822Y029535D01*
X002778Y029559D01*
X002736Y029586D01*
X002696Y029616D01*
X002659Y029650D01*
X002625Y029687D01*
X002593Y029726D01*
X002565Y029767D01*
X002540Y029811D01*
X002519Y029856D01*
X002502Y029903D01*
X002488Y029951D01*
X002478Y030000D01*
X002472Y030050D01*
X002470Y030100D01*
X002470Y045100D02*
X002472Y045150D01*
X002478Y045200D01*
X002488Y045249D01*
X002502Y045297D01*
X002519Y045344D01*
X002540Y045389D01*
X002565Y045433D01*
X002593Y045474D01*
X002625Y045513D01*
X002659Y045550D01*
X002696Y045584D01*
X002736Y045614D01*
X002778Y045641D01*
X002822Y045665D01*
X002868Y045686D01*
X002915Y045702D01*
X002963Y045715D01*
X003013Y045724D01*
X003062Y045729D01*
X003113Y045730D01*
X003163Y045727D01*
X003212Y045720D01*
X003261Y045709D01*
X003309Y045694D01*
X003355Y045676D01*
X003400Y045654D01*
X003443Y045628D01*
X003484Y045599D01*
X003523Y045567D01*
X003559Y045532D01*
X003591Y045494D01*
X003621Y045454D01*
X003648Y045411D01*
X003671Y045367D01*
X003690Y045321D01*
X003706Y045273D01*
X003718Y045224D01*
X003726Y045175D01*
X003730Y045125D01*
X003730Y045075D01*
X003726Y045025D01*
X003718Y044976D01*
X003706Y044927D01*
X003690Y044879D01*
X003671Y044833D01*
X003648Y044789D01*
X003621Y044746D01*
X003591Y044706D01*
X003559Y044668D01*
X003523Y044633D01*
X003484Y044601D01*
X003443Y044572D01*
X003400Y044546D01*
X003355Y044524D01*
X003309Y044506D01*
X003261Y044491D01*
X003212Y044480D01*
X003163Y044473D01*
X003113Y044470D01*
X003062Y044471D01*
X003013Y044476D01*
X002963Y044485D01*
X002915Y044498D01*
X002868Y044514D01*
X002822Y044535D01*
X002778Y044559D01*
X002736Y044586D01*
X002696Y044616D01*
X002659Y044650D01*
X002625Y044687D01*
X002593Y044726D01*
X002565Y044767D01*
X002540Y044811D01*
X002519Y044856D01*
X002502Y044903D01*
X002488Y044951D01*
X002478Y045000D01*
X002472Y045050D01*
X002470Y045100D01*
X002470Y060100D02*
X002472Y060150D01*
X002478Y060200D01*
X002488Y060249D01*
X002502Y060297D01*
X002519Y060344D01*
X002540Y060389D01*
X002565Y060433D01*
X002593Y060474D01*
X002625Y060513D01*
X002659Y060550D01*
X002696Y060584D01*
X002736Y060614D01*
X002778Y060641D01*
X002822Y060665D01*
X002868Y060686D01*
X002915Y060702D01*
X002963Y060715D01*
X003013Y060724D01*
X003062Y060729D01*
X003113Y060730D01*
X003163Y060727D01*
X003212Y060720D01*
X003261Y060709D01*
X003309Y060694D01*
X003355Y060676D01*
X003400Y060654D01*
X003443Y060628D01*
X003484Y060599D01*
X003523Y060567D01*
X003559Y060532D01*
X003591Y060494D01*
X003621Y060454D01*
X003648Y060411D01*
X003671Y060367D01*
X003690Y060321D01*
X003706Y060273D01*
X003718Y060224D01*
X003726Y060175D01*
X003730Y060125D01*
X003730Y060075D01*
X003726Y060025D01*
X003718Y059976D01*
X003706Y059927D01*
X003690Y059879D01*
X003671Y059833D01*
X003648Y059789D01*
X003621Y059746D01*
X003591Y059706D01*
X003559Y059668D01*
X003523Y059633D01*
X003484Y059601D01*
X003443Y059572D01*
X003400Y059546D01*
X003355Y059524D01*
X003309Y059506D01*
X003261Y059491D01*
X003212Y059480D01*
X003163Y059473D01*
X003113Y059470D01*
X003062Y059471D01*
X003013Y059476D01*
X002963Y059485D01*
X002915Y059498D01*
X002868Y059514D01*
X002822Y059535D01*
X002778Y059559D01*
X002736Y059586D01*
X002696Y059616D01*
X002659Y059650D01*
X002625Y059687D01*
X002593Y059726D01*
X002565Y059767D01*
X002540Y059811D01*
X002519Y059856D01*
X002502Y059903D01*
X002488Y059951D01*
X002478Y060000D01*
X002472Y060050D01*
X002470Y060100D01*
X002470Y075100D02*
X002472Y075150D01*
X002478Y075200D01*
X002488Y075249D01*
X002502Y075297D01*
X002519Y075344D01*
X002540Y075389D01*
X002565Y075433D01*
X002593Y075474D01*
X002625Y075513D01*
X002659Y075550D01*
X002696Y075584D01*
X002736Y075614D01*
X002778Y075641D01*
X002822Y075665D01*
X002868Y075686D01*
X002915Y075702D01*
X002963Y075715D01*
X003013Y075724D01*
X003062Y075729D01*
X003113Y075730D01*
X003163Y075727D01*
X003212Y075720D01*
X003261Y075709D01*
X003309Y075694D01*
X003355Y075676D01*
X003400Y075654D01*
X003443Y075628D01*
X003484Y075599D01*
X003523Y075567D01*
X003559Y075532D01*
X003591Y075494D01*
X003621Y075454D01*
X003648Y075411D01*
X003671Y075367D01*
X003690Y075321D01*
X003706Y075273D01*
X003718Y075224D01*
X003726Y075175D01*
X003730Y075125D01*
X003730Y075075D01*
X003726Y075025D01*
X003718Y074976D01*
X003706Y074927D01*
X003690Y074879D01*
X003671Y074833D01*
X003648Y074789D01*
X003621Y074746D01*
X003591Y074706D01*
X003559Y074668D01*
X003523Y074633D01*
X003484Y074601D01*
X003443Y074572D01*
X003400Y074546D01*
X003355Y074524D01*
X003309Y074506D01*
X003261Y074491D01*
X003212Y074480D01*
X003163Y074473D01*
X003113Y074470D01*
X003062Y074471D01*
X003013Y074476D01*
X002963Y074485D01*
X002915Y074498D01*
X002868Y074514D01*
X002822Y074535D01*
X002778Y074559D01*
X002736Y074586D01*
X002696Y074616D01*
X002659Y074650D01*
X002625Y074687D01*
X002593Y074726D01*
X002565Y074767D01*
X002540Y074811D01*
X002519Y074856D01*
X002502Y074903D01*
X002488Y074951D01*
X002478Y075000D01*
X002472Y075050D01*
X002470Y075100D01*
X002470Y090100D02*
X002472Y090150D01*
X002478Y090200D01*
X002488Y090249D01*
X002502Y090297D01*
X002519Y090344D01*
X002540Y090389D01*
X002565Y090433D01*
X002593Y090474D01*
X002625Y090513D01*
X002659Y090550D01*
X002696Y090584D01*
X002736Y090614D01*
X002778Y090641D01*
X002822Y090665D01*
X002868Y090686D01*
X002915Y090702D01*
X002963Y090715D01*
X003013Y090724D01*
X003062Y090729D01*
X003113Y090730D01*
X003163Y090727D01*
X003212Y090720D01*
X003261Y090709D01*
X003309Y090694D01*
X003355Y090676D01*
X003400Y090654D01*
X003443Y090628D01*
X003484Y090599D01*
X003523Y090567D01*
X003559Y090532D01*
X003591Y090494D01*
X003621Y090454D01*
X003648Y090411D01*
X003671Y090367D01*
X003690Y090321D01*
X003706Y090273D01*
X003718Y090224D01*
X003726Y090175D01*
X003730Y090125D01*
X003730Y090075D01*
X003726Y090025D01*
X003718Y089976D01*
X003706Y089927D01*
X003690Y089879D01*
X003671Y089833D01*
X003648Y089789D01*
X003621Y089746D01*
X003591Y089706D01*
X003559Y089668D01*
X003523Y089633D01*
X003484Y089601D01*
X003443Y089572D01*
X003400Y089546D01*
X003355Y089524D01*
X003309Y089506D01*
X003261Y089491D01*
X003212Y089480D01*
X003163Y089473D01*
X003113Y089470D01*
X003062Y089471D01*
X003013Y089476D01*
X002963Y089485D01*
X002915Y089498D01*
X002868Y089514D01*
X002822Y089535D01*
X002778Y089559D01*
X002736Y089586D01*
X002696Y089616D01*
X002659Y089650D01*
X002625Y089687D01*
X002593Y089726D01*
X002565Y089767D01*
X002540Y089811D01*
X002519Y089856D01*
X002502Y089903D01*
X002488Y089951D01*
X002478Y090000D01*
X002472Y090050D01*
X002470Y090100D01*
X002470Y105100D02*
X002472Y105150D01*
X002478Y105200D01*
X002488Y105249D01*
X002502Y105297D01*
X002519Y105344D01*
X002540Y105389D01*
X002565Y105433D01*
X002593Y105474D01*
X002625Y105513D01*
X002659Y105550D01*
X002696Y105584D01*
X002736Y105614D01*
X002778Y105641D01*
X002822Y105665D01*
X002868Y105686D01*
X002915Y105702D01*
X002963Y105715D01*
X003013Y105724D01*
X003062Y105729D01*
X003113Y105730D01*
X003163Y105727D01*
X003212Y105720D01*
X003261Y105709D01*
X003309Y105694D01*
X003355Y105676D01*
X003400Y105654D01*
X003443Y105628D01*
X003484Y105599D01*
X003523Y105567D01*
X003559Y105532D01*
X003591Y105494D01*
X003621Y105454D01*
X003648Y105411D01*
X003671Y105367D01*
X003690Y105321D01*
X003706Y105273D01*
X003718Y105224D01*
X003726Y105175D01*
X003730Y105125D01*
X003730Y105075D01*
X003726Y105025D01*
X003718Y104976D01*
X003706Y104927D01*
X003690Y104879D01*
X003671Y104833D01*
X003648Y104789D01*
X003621Y104746D01*
X003591Y104706D01*
X003559Y104668D01*
X003523Y104633D01*
X003484Y104601D01*
X003443Y104572D01*
X003400Y104546D01*
X003355Y104524D01*
X003309Y104506D01*
X003261Y104491D01*
X003212Y104480D01*
X003163Y104473D01*
X003113Y104470D01*
X003062Y104471D01*
X003013Y104476D01*
X002963Y104485D01*
X002915Y104498D01*
X002868Y104514D01*
X002822Y104535D01*
X002778Y104559D01*
X002736Y104586D01*
X002696Y104616D01*
X002659Y104650D01*
X002625Y104687D01*
X002593Y104726D01*
X002565Y104767D01*
X002540Y104811D01*
X002519Y104856D01*
X002502Y104903D01*
X002488Y104951D01*
X002478Y105000D01*
X002472Y105050D01*
X002470Y105100D01*
X011470Y105100D02*
X011472Y105150D01*
X011478Y105200D01*
X011488Y105249D01*
X011502Y105297D01*
X011519Y105344D01*
X011540Y105389D01*
X011565Y105433D01*
X011593Y105474D01*
X011625Y105513D01*
X011659Y105550D01*
X011696Y105584D01*
X011736Y105614D01*
X011778Y105641D01*
X011822Y105665D01*
X011868Y105686D01*
X011915Y105702D01*
X011963Y105715D01*
X012013Y105724D01*
X012062Y105729D01*
X012113Y105730D01*
X012163Y105727D01*
X012212Y105720D01*
X012261Y105709D01*
X012309Y105694D01*
X012355Y105676D01*
X012400Y105654D01*
X012443Y105628D01*
X012484Y105599D01*
X012523Y105567D01*
X012559Y105532D01*
X012591Y105494D01*
X012621Y105454D01*
X012648Y105411D01*
X012671Y105367D01*
X012690Y105321D01*
X012706Y105273D01*
X012718Y105224D01*
X012726Y105175D01*
X012730Y105125D01*
X012730Y105075D01*
X012726Y105025D01*
X012718Y104976D01*
X012706Y104927D01*
X012690Y104879D01*
X012671Y104833D01*
X012648Y104789D01*
X012621Y104746D01*
X012591Y104706D01*
X012559Y104668D01*
X012523Y104633D01*
X012484Y104601D01*
X012443Y104572D01*
X012400Y104546D01*
X012355Y104524D01*
X012309Y104506D01*
X012261Y104491D01*
X012212Y104480D01*
X012163Y104473D01*
X012113Y104470D01*
X012062Y104471D01*
X012013Y104476D01*
X011963Y104485D01*
X011915Y104498D01*
X011868Y104514D01*
X011822Y104535D01*
X011778Y104559D01*
X011736Y104586D01*
X011696Y104616D01*
X011659Y104650D01*
X011625Y104687D01*
X011593Y104726D01*
X011565Y104767D01*
X011540Y104811D01*
X011519Y104856D01*
X011502Y104903D01*
X011488Y104951D01*
X011478Y105000D01*
X011472Y105050D01*
X011470Y105100D01*
X011470Y090100D02*
X011472Y090150D01*
X011478Y090200D01*
X011488Y090249D01*
X011502Y090297D01*
X011519Y090344D01*
X011540Y090389D01*
X011565Y090433D01*
X011593Y090474D01*
X011625Y090513D01*
X011659Y090550D01*
X011696Y090584D01*
X011736Y090614D01*
X011778Y090641D01*
X011822Y090665D01*
X011868Y090686D01*
X011915Y090702D01*
X011963Y090715D01*
X012013Y090724D01*
X012062Y090729D01*
X012113Y090730D01*
X012163Y090727D01*
X012212Y090720D01*
X012261Y090709D01*
X012309Y090694D01*
X012355Y090676D01*
X012400Y090654D01*
X012443Y090628D01*
X012484Y090599D01*
X012523Y090567D01*
X012559Y090532D01*
X012591Y090494D01*
X012621Y090454D01*
X012648Y090411D01*
X012671Y090367D01*
X012690Y090321D01*
X012706Y090273D01*
X012718Y090224D01*
X012726Y090175D01*
X012730Y090125D01*
X012730Y090075D01*
X012726Y090025D01*
X012718Y089976D01*
X012706Y089927D01*
X012690Y089879D01*
X012671Y089833D01*
X012648Y089789D01*
X012621Y089746D01*
X012591Y089706D01*
X012559Y089668D01*
X012523Y089633D01*
X012484Y089601D01*
X012443Y089572D01*
X012400Y089546D01*
X012355Y089524D01*
X012309Y089506D01*
X012261Y089491D01*
X012212Y089480D01*
X012163Y089473D01*
X012113Y089470D01*
X012062Y089471D01*
X012013Y089476D01*
X011963Y089485D01*
X011915Y089498D01*
X011868Y089514D01*
X011822Y089535D01*
X011778Y089559D01*
X011736Y089586D01*
X011696Y089616D01*
X011659Y089650D01*
X011625Y089687D01*
X011593Y089726D01*
X011565Y089767D01*
X011540Y089811D01*
X011519Y089856D01*
X011502Y089903D01*
X011488Y089951D01*
X011478Y090000D01*
X011472Y090050D01*
X011470Y090100D01*
X011470Y075100D02*
X011472Y075150D01*
X011478Y075200D01*
X011488Y075249D01*
X011502Y075297D01*
X011519Y075344D01*
X011540Y075389D01*
X011565Y075433D01*
X011593Y075474D01*
X011625Y075513D01*
X011659Y075550D01*
X011696Y075584D01*
X011736Y075614D01*
X011778Y075641D01*
X011822Y075665D01*
X011868Y075686D01*
X011915Y075702D01*
X011963Y075715D01*
X012013Y075724D01*
X012062Y075729D01*
X012113Y075730D01*
X012163Y075727D01*
X012212Y075720D01*
X012261Y075709D01*
X012309Y075694D01*
X012355Y075676D01*
X012400Y075654D01*
X012443Y075628D01*
X012484Y075599D01*
X012523Y075567D01*
X012559Y075532D01*
X012591Y075494D01*
X012621Y075454D01*
X012648Y075411D01*
X012671Y075367D01*
X012690Y075321D01*
X012706Y075273D01*
X012718Y075224D01*
X012726Y075175D01*
X012730Y075125D01*
X012730Y075075D01*
X012726Y075025D01*
X012718Y074976D01*
X012706Y074927D01*
X012690Y074879D01*
X012671Y074833D01*
X012648Y074789D01*
X012621Y074746D01*
X012591Y074706D01*
X012559Y074668D01*
X012523Y074633D01*
X012484Y074601D01*
X012443Y074572D01*
X012400Y074546D01*
X012355Y074524D01*
X012309Y074506D01*
X012261Y074491D01*
X012212Y074480D01*
X012163Y074473D01*
X012113Y074470D01*
X012062Y074471D01*
X012013Y074476D01*
X011963Y074485D01*
X011915Y074498D01*
X011868Y074514D01*
X011822Y074535D01*
X011778Y074559D01*
X011736Y074586D01*
X011696Y074616D01*
X011659Y074650D01*
X011625Y074687D01*
X011593Y074726D01*
X011565Y074767D01*
X011540Y074811D01*
X011519Y074856D01*
X011502Y074903D01*
X011488Y074951D01*
X011478Y075000D01*
X011472Y075050D01*
X011470Y075100D01*
X011470Y060100D02*
X011472Y060150D01*
X011478Y060200D01*
X011488Y060249D01*
X011502Y060297D01*
X011519Y060344D01*
X011540Y060389D01*
X011565Y060433D01*
X011593Y060474D01*
X011625Y060513D01*
X011659Y060550D01*
X011696Y060584D01*
X011736Y060614D01*
X011778Y060641D01*
X011822Y060665D01*
X011868Y060686D01*
X011915Y060702D01*
X011963Y060715D01*
X012013Y060724D01*
X012062Y060729D01*
X012113Y060730D01*
X012163Y060727D01*
X012212Y060720D01*
X012261Y060709D01*
X012309Y060694D01*
X012355Y060676D01*
X012400Y060654D01*
X012443Y060628D01*
X012484Y060599D01*
X012523Y060567D01*
X012559Y060532D01*
X012591Y060494D01*
X012621Y060454D01*
X012648Y060411D01*
X012671Y060367D01*
X012690Y060321D01*
X012706Y060273D01*
X012718Y060224D01*
X012726Y060175D01*
X012730Y060125D01*
X012730Y060075D01*
X012726Y060025D01*
X012718Y059976D01*
X012706Y059927D01*
X012690Y059879D01*
X012671Y059833D01*
X012648Y059789D01*
X012621Y059746D01*
X012591Y059706D01*
X012559Y059668D01*
X012523Y059633D01*
X012484Y059601D01*
X012443Y059572D01*
X012400Y059546D01*
X012355Y059524D01*
X012309Y059506D01*
X012261Y059491D01*
X012212Y059480D01*
X012163Y059473D01*
X012113Y059470D01*
X012062Y059471D01*
X012013Y059476D01*
X011963Y059485D01*
X011915Y059498D01*
X011868Y059514D01*
X011822Y059535D01*
X011778Y059559D01*
X011736Y059586D01*
X011696Y059616D01*
X011659Y059650D01*
X011625Y059687D01*
X011593Y059726D01*
X011565Y059767D01*
X011540Y059811D01*
X011519Y059856D01*
X011502Y059903D01*
X011488Y059951D01*
X011478Y060000D01*
X011472Y060050D01*
X011470Y060100D01*
X011470Y045100D02*
X011472Y045150D01*
X011478Y045200D01*
X011488Y045249D01*
X011502Y045297D01*
X011519Y045344D01*
X011540Y045389D01*
X011565Y045433D01*
X011593Y045474D01*
X011625Y045513D01*
X011659Y045550D01*
X011696Y045584D01*
X011736Y045614D01*
X011778Y045641D01*
X011822Y045665D01*
X011868Y045686D01*
X011915Y045702D01*
X011963Y045715D01*
X012013Y045724D01*
X012062Y045729D01*
X012113Y045730D01*
X012163Y045727D01*
X012212Y045720D01*
X012261Y045709D01*
X012309Y045694D01*
X012355Y045676D01*
X012400Y045654D01*
X012443Y045628D01*
X012484Y045599D01*
X012523Y045567D01*
X012559Y045532D01*
X012591Y045494D01*
X012621Y045454D01*
X012648Y045411D01*
X012671Y045367D01*
X012690Y045321D01*
X012706Y045273D01*
X012718Y045224D01*
X012726Y045175D01*
X012730Y045125D01*
X012730Y045075D01*
X012726Y045025D01*
X012718Y044976D01*
X012706Y044927D01*
X012690Y044879D01*
X012671Y044833D01*
X012648Y044789D01*
X012621Y044746D01*
X012591Y044706D01*
X012559Y044668D01*
X012523Y044633D01*
X012484Y044601D01*
X012443Y044572D01*
X012400Y044546D01*
X012355Y044524D01*
X012309Y044506D01*
X012261Y044491D01*
X012212Y044480D01*
X012163Y044473D01*
X012113Y044470D01*
X012062Y044471D01*
X012013Y044476D01*
X011963Y044485D01*
X011915Y044498D01*
X011868Y044514D01*
X011822Y044535D01*
X011778Y044559D01*
X011736Y044586D01*
X011696Y044616D01*
X011659Y044650D01*
X011625Y044687D01*
X011593Y044726D01*
X011565Y044767D01*
X011540Y044811D01*
X011519Y044856D01*
X011502Y044903D01*
X011488Y044951D01*
X011478Y045000D01*
X011472Y045050D01*
X011470Y045100D01*
X011470Y030100D02*
X011472Y030150D01*
X011478Y030200D01*
X011488Y030249D01*
X011502Y030297D01*
X011519Y030344D01*
X011540Y030389D01*
X011565Y030433D01*
X011593Y030474D01*
X011625Y030513D01*
X011659Y030550D01*
X011696Y030584D01*
X011736Y030614D01*
X011778Y030641D01*
X011822Y030665D01*
X011868Y030686D01*
X011915Y030702D01*
X011963Y030715D01*
X012013Y030724D01*
X012062Y030729D01*
X012113Y030730D01*
X012163Y030727D01*
X012212Y030720D01*
X012261Y030709D01*
X012309Y030694D01*
X012355Y030676D01*
X012400Y030654D01*
X012443Y030628D01*
X012484Y030599D01*
X012523Y030567D01*
X012559Y030532D01*
X012591Y030494D01*
X012621Y030454D01*
X012648Y030411D01*
X012671Y030367D01*
X012690Y030321D01*
X012706Y030273D01*
X012718Y030224D01*
X012726Y030175D01*
X012730Y030125D01*
X012730Y030075D01*
X012726Y030025D01*
X012718Y029976D01*
X012706Y029927D01*
X012690Y029879D01*
X012671Y029833D01*
X012648Y029789D01*
X012621Y029746D01*
X012591Y029706D01*
X012559Y029668D01*
X012523Y029633D01*
X012484Y029601D01*
X012443Y029572D01*
X012400Y029546D01*
X012355Y029524D01*
X012309Y029506D01*
X012261Y029491D01*
X012212Y029480D01*
X012163Y029473D01*
X012113Y029470D01*
X012062Y029471D01*
X012013Y029476D01*
X011963Y029485D01*
X011915Y029498D01*
X011868Y029514D01*
X011822Y029535D01*
X011778Y029559D01*
X011736Y029586D01*
X011696Y029616D01*
X011659Y029650D01*
X011625Y029687D01*
X011593Y029726D01*
X011565Y029767D01*
X011540Y029811D01*
X011519Y029856D01*
X011502Y029903D01*
X011488Y029951D01*
X011478Y030000D01*
X011472Y030050D01*
X011470Y030100D01*
X011470Y015100D02*
X011472Y015150D01*
X011478Y015200D01*
X011488Y015249D01*
X011502Y015297D01*
X011519Y015344D01*
X011540Y015389D01*
X011565Y015433D01*
X011593Y015474D01*
X011625Y015513D01*
X011659Y015550D01*
X011696Y015584D01*
X011736Y015614D01*
X011778Y015641D01*
X011822Y015665D01*
X011868Y015686D01*
X011915Y015702D01*
X011963Y015715D01*
X012013Y015724D01*
X012062Y015729D01*
X012113Y015730D01*
X012163Y015727D01*
X012212Y015720D01*
X012261Y015709D01*
X012309Y015694D01*
X012355Y015676D01*
X012400Y015654D01*
X012443Y015628D01*
X012484Y015599D01*
X012523Y015567D01*
X012559Y015532D01*
X012591Y015494D01*
X012621Y015454D01*
X012648Y015411D01*
X012671Y015367D01*
X012690Y015321D01*
X012706Y015273D01*
X012718Y015224D01*
X012726Y015175D01*
X012730Y015125D01*
X012730Y015075D01*
X012726Y015025D01*
X012718Y014976D01*
X012706Y014927D01*
X012690Y014879D01*
X012671Y014833D01*
X012648Y014789D01*
X012621Y014746D01*
X012591Y014706D01*
X012559Y014668D01*
X012523Y014633D01*
X012484Y014601D01*
X012443Y014572D01*
X012400Y014546D01*
X012355Y014524D01*
X012309Y014506D01*
X012261Y014491D01*
X012212Y014480D01*
X012163Y014473D01*
X012113Y014470D01*
X012062Y014471D01*
X012013Y014476D01*
X011963Y014485D01*
X011915Y014498D01*
X011868Y014514D01*
X011822Y014535D01*
X011778Y014559D01*
X011736Y014586D01*
X011696Y014616D01*
X011659Y014650D01*
X011625Y014687D01*
X011593Y014726D01*
X011565Y014767D01*
X011540Y014811D01*
X011519Y014856D01*
X011502Y014903D01*
X011488Y014951D01*
X011478Y015000D01*
X011472Y015050D01*
X011470Y015100D01*
D11*
X012100Y015100D03*
X010600Y002100D03*
X009600Y002100D03*
X008600Y002100D03*
X007600Y002100D03*
X006600Y002100D03*
X005600Y002100D03*
X004600Y002100D03*
X003100Y015100D03*
X003100Y030100D03*
X003100Y045100D03*
X003100Y060100D03*
X003100Y075100D03*
X003100Y090100D03*
X003100Y105100D03*
X012100Y105100D03*
X012100Y090100D03*
X012100Y075100D03*
X012100Y060100D03*
X012100Y045100D03*
X012100Y030100D03*
D12*
X011600Y002100D03*
D13*
X004600Y002100D02*
X004600Y013600D01*
X003100Y015100D01*
X003100Y030100D01*
X003100Y045100D01*
X003100Y060100D01*
X003100Y075100D01*
X003100Y090100D01*
X003100Y105100D01*
D14*
X012100Y015100D02*
X011600Y014600D01*
X011600Y002100D01*
M02*
