G75*
G70*
%OFA0B0*%
%FSLAX24Y24*%
%IPPOS*%
%LPD*%
%AMOC8*
5,1,8,0,0,1.08239X$1,22.5*
%
%ADD10C,0.0100*%
%ADD11C,0.0110*%
%ADD12C,0.0060*%
%ADD13C,0.0030*%
%ADD14C,0.0080*%
D10*
X006487Y010600D02*
X014487Y010600D01*
X014487Y013600D01*
X006487Y013600D01*
X006487Y010600D01*
X006637Y011650D02*
X007037Y011650D01*
X007037Y012250D02*
X006637Y012250D01*
D11*
X001042Y000753D02*
X001140Y000655D01*
X001337Y000655D01*
X001435Y000753D01*
X001435Y001246D01*
X001686Y001147D02*
X001686Y000753D01*
X001785Y000655D01*
X001981Y000655D01*
X002080Y000753D01*
X002331Y000753D02*
X002429Y000655D01*
X002724Y000655D01*
X002724Y001049D01*
X002975Y001049D02*
X003271Y001049D01*
X003369Y000950D01*
X003369Y000753D01*
X003271Y000655D01*
X002975Y000655D01*
X002975Y001246D01*
X002331Y001049D02*
X002331Y000753D01*
X002080Y001147D02*
X001981Y001246D01*
X001785Y001246D01*
X001686Y001147D01*
X001042Y001246D02*
X001042Y000753D01*
X003620Y000753D02*
X003718Y000655D01*
X003915Y000655D01*
X003620Y000753D02*
X003620Y000950D01*
X003718Y001049D01*
X003915Y001049D01*
X004014Y000950D01*
X004014Y000852D01*
X003620Y000852D01*
X004264Y000557D02*
X004658Y000557D01*
X005106Y000655D02*
X005303Y001049D01*
X005554Y001147D02*
X005652Y001246D01*
X005849Y001246D01*
X005947Y001147D01*
X005947Y001049D01*
X005554Y000655D01*
X005947Y000655D01*
X005106Y000655D02*
X004909Y001049D01*
X005739Y005155D02*
X005935Y005352D01*
X005935Y005746D01*
X006186Y005647D02*
X006186Y005253D01*
X006285Y005155D01*
X006481Y005155D01*
X006580Y005253D01*
X006831Y005253D02*
X006929Y005155D01*
X007126Y005155D01*
X007224Y005253D01*
X006831Y005253D02*
X006831Y005647D01*
X006929Y005746D01*
X007126Y005746D01*
X007224Y005647D01*
X007792Y005647D02*
X007890Y005746D01*
X008087Y005746D01*
X008185Y005647D01*
X008185Y005549D01*
X007792Y005155D01*
X008185Y005155D01*
X008792Y005253D02*
X008890Y005155D01*
X009087Y005155D01*
X009185Y005253D01*
X009185Y005352D01*
X009087Y005450D01*
X008989Y005450D01*
X009087Y005450D02*
X009185Y005549D01*
X009185Y005647D01*
X009087Y005746D01*
X008890Y005746D01*
X008792Y005647D01*
X009792Y005450D02*
X010185Y005450D01*
X010087Y005155D02*
X010087Y005746D01*
X009792Y005450D01*
X010842Y005450D02*
X011039Y005549D01*
X011137Y005549D01*
X011235Y005450D01*
X011235Y005253D01*
X011137Y005155D01*
X010940Y005155D01*
X010842Y005253D01*
X010842Y005450D02*
X010842Y005746D01*
X011235Y005746D01*
X011892Y005450D02*
X011892Y005253D01*
X011990Y005155D01*
X012187Y005155D01*
X012285Y005253D01*
X012285Y005352D01*
X012187Y005450D01*
X011892Y005450D01*
X012089Y005647D01*
X012285Y005746D01*
X012892Y005746D02*
X013285Y005746D01*
X013285Y005647D01*
X012892Y005253D01*
X012892Y005155D01*
X013842Y005253D02*
X013940Y005155D01*
X014137Y005155D01*
X014235Y005253D01*
X014235Y005352D01*
X014137Y005450D01*
X013940Y005450D01*
X013842Y005549D01*
X013842Y005647D01*
X013940Y005746D01*
X014137Y005746D01*
X014235Y005647D01*
X014235Y005549D01*
X014137Y005450D01*
X013940Y005450D02*
X013842Y005352D01*
X013842Y005253D01*
X015640Y008155D02*
X015542Y008253D01*
X015640Y008155D02*
X015837Y008155D01*
X015935Y008253D01*
X015935Y008450D01*
X015837Y008549D01*
X015739Y008549D01*
X015542Y008450D01*
X015542Y008746D01*
X015935Y008746D01*
X016186Y008746D02*
X016186Y008352D01*
X016383Y008155D01*
X016580Y008352D01*
X016580Y008746D01*
X016580Y009155D02*
X016580Y009746D01*
X016831Y009746D02*
X017126Y009746D01*
X017224Y009647D01*
X017224Y009253D01*
X017126Y009155D01*
X016831Y009155D01*
X016831Y009746D01*
X016580Y009155D02*
X016186Y009746D01*
X016186Y009155D01*
X015935Y009253D02*
X015935Y009450D01*
X015739Y009450D01*
X015935Y009253D02*
X015837Y009155D01*
X015640Y009155D01*
X015542Y009253D01*
X015542Y009647D01*
X015640Y009746D01*
X015837Y009746D01*
X015935Y009647D01*
X015837Y011155D02*
X015640Y011155D01*
X015542Y011253D01*
X015542Y011647D01*
X015640Y011746D01*
X015837Y011746D01*
X015935Y011647D01*
X016186Y011746D02*
X016186Y011155D01*
X016580Y011155D01*
X016831Y011155D02*
X016831Y011746D01*
X016929Y011450D02*
X017224Y011155D01*
X016831Y011352D02*
X017224Y011746D01*
X017126Y012155D02*
X017224Y012253D01*
X017126Y012155D02*
X016929Y012155D01*
X016831Y012253D01*
X016831Y012647D01*
X016929Y012746D01*
X017126Y012746D01*
X017224Y012647D01*
X017475Y012746D02*
X017475Y012155D01*
X017475Y012450D02*
X017869Y012450D01*
X017869Y012155D02*
X017869Y012746D01*
X017869Y013057D02*
X017475Y013057D01*
X017224Y013155D02*
X017028Y013352D01*
X017126Y013352D02*
X016831Y013352D01*
X016831Y013155D02*
X016831Y013746D01*
X017126Y013746D01*
X017224Y013647D01*
X017224Y013450D01*
X017126Y013352D01*
X016580Y013155D02*
X016186Y013155D01*
X016186Y013746D01*
X016580Y013746D01*
X016383Y013450D02*
X016186Y013450D01*
X015935Y013352D02*
X015935Y013253D01*
X015837Y013155D01*
X015640Y013155D01*
X015542Y013253D01*
X015640Y013450D02*
X015837Y013450D01*
X015935Y013352D01*
X015640Y013450D02*
X015542Y013549D01*
X015542Y013647D01*
X015640Y013746D01*
X015837Y013746D01*
X015935Y013647D01*
X015837Y014155D02*
X015640Y014155D01*
X015542Y014253D01*
X015542Y014647D01*
X015640Y014746D01*
X015837Y014746D01*
X015935Y014647D01*
X015935Y014450D02*
X015739Y014450D01*
X015935Y014450D02*
X015935Y014253D01*
X015837Y014155D01*
X016186Y014155D02*
X016186Y014746D01*
X016580Y014155D01*
X016580Y014746D01*
X016831Y014746D02*
X017126Y014746D01*
X017224Y014647D01*
X017224Y014253D01*
X017126Y014155D01*
X016831Y014155D01*
X016831Y014746D01*
X016929Y015155D02*
X017126Y015155D01*
X017224Y015253D01*
X016929Y015155D02*
X016831Y015253D01*
X016831Y015647D01*
X016929Y015746D01*
X017126Y015746D01*
X017224Y015647D01*
X016580Y015647D02*
X016481Y015746D01*
X016285Y015746D01*
X016186Y015647D01*
X016186Y015253D01*
X016285Y015155D01*
X016481Y015155D01*
X016580Y015253D01*
X015935Y015352D02*
X015935Y015746D01*
X015542Y015746D02*
X015542Y015352D01*
X015739Y015155D01*
X015935Y015352D01*
X018120Y013647D02*
X018120Y013253D01*
X018218Y013155D01*
X018415Y013155D01*
X018514Y013253D01*
X018514Y013647D01*
X018415Y013746D01*
X018218Y013746D01*
X018120Y013647D01*
X018764Y013746D02*
X018764Y013253D01*
X018863Y013155D01*
X019060Y013155D01*
X019158Y013253D01*
X019158Y013746D01*
X019409Y013746D02*
X019803Y013746D01*
X019606Y013746D02*
X019606Y013155D01*
X016580Y012746D02*
X016186Y012746D01*
X016383Y012746D02*
X016383Y012155D01*
X015935Y012155D02*
X015542Y012155D01*
X015542Y012746D01*
X015935Y011253D02*
X015837Y011155D01*
X012947Y009746D02*
X012554Y009746D01*
X012554Y009155D01*
X012947Y009155D01*
X012750Y009450D02*
X012554Y009450D01*
X012303Y009352D02*
X012303Y009253D01*
X012204Y009155D01*
X011909Y009155D01*
X011909Y009746D01*
X012204Y009746D01*
X012303Y009647D01*
X012303Y009549D01*
X012204Y009450D01*
X011909Y009450D01*
X012204Y009450D02*
X012303Y009352D01*
X011658Y009155D02*
X011264Y009155D01*
X011461Y009155D02*
X011461Y009746D01*
X011264Y009549D01*
X011014Y009549D02*
X011014Y009647D01*
X010915Y009746D01*
X010718Y009746D01*
X010620Y009647D01*
X010369Y009647D02*
X009975Y009253D01*
X010074Y009155D01*
X010271Y009155D01*
X010369Y009253D01*
X010369Y009647D01*
X010271Y009746D01*
X010074Y009746D01*
X009975Y009647D01*
X009975Y009253D01*
X009724Y009450D02*
X009331Y009450D01*
X009626Y009746D01*
X009626Y009155D01*
X009080Y009253D02*
X009080Y009647D01*
X008981Y009746D01*
X008686Y009746D01*
X008686Y009155D01*
X008981Y009155D01*
X009080Y009253D01*
X008435Y009253D02*
X008337Y009155D01*
X008140Y009155D01*
X008042Y009253D01*
X008042Y009647D01*
X008140Y009746D01*
X008337Y009746D01*
X008435Y009647D01*
X010620Y009155D02*
X011014Y009549D01*
X011014Y009155D02*
X010620Y009155D01*
X007239Y011852D02*
X007239Y012049D01*
X007042Y012246D01*
X007239Y011852D02*
X007042Y011655D01*
X005869Y012155D02*
X005869Y012746D01*
X005869Y012450D02*
X005475Y012450D01*
X005224Y012253D02*
X005126Y012155D01*
X004929Y012155D01*
X004831Y012253D01*
X004831Y012647D01*
X004929Y012746D01*
X005126Y012746D01*
X005224Y012647D01*
X005475Y012746D02*
X005475Y012155D01*
X005331Y011746D02*
X005331Y011155D01*
X005331Y011352D02*
X005724Y011746D01*
X005429Y011450D02*
X005724Y011155D01*
X005080Y011155D02*
X004686Y011155D01*
X004686Y011746D01*
X004435Y011647D02*
X004337Y011746D01*
X004140Y011746D01*
X004042Y011647D01*
X004042Y011253D01*
X004140Y011155D01*
X004337Y011155D01*
X004435Y011253D01*
X004383Y012155D02*
X004383Y012746D01*
X004186Y012746D02*
X004580Y012746D01*
X004475Y013057D02*
X004869Y013057D01*
X005120Y013155D02*
X005317Y013155D01*
X005218Y013155D02*
X005218Y013746D01*
X005120Y013746D02*
X005317Y013746D01*
X005550Y013746D02*
X005943Y013155D01*
X005943Y013746D01*
X005550Y013746D02*
X005550Y013155D01*
X005626Y014155D02*
X005331Y014155D01*
X005331Y014746D01*
X005626Y014746D01*
X005724Y014647D01*
X005724Y014253D01*
X005626Y014155D01*
X005080Y014155D02*
X005080Y014746D01*
X004686Y014746D02*
X005080Y014155D01*
X004686Y014155D02*
X004686Y014746D01*
X004435Y014647D02*
X004337Y014746D01*
X004140Y014746D01*
X004042Y014647D01*
X004042Y014253D01*
X004140Y014155D01*
X004337Y014155D01*
X004435Y014253D01*
X004435Y014450D01*
X004239Y014450D01*
X004239Y015155D02*
X004435Y015352D01*
X004435Y015746D01*
X004686Y015647D02*
X004686Y015253D01*
X004785Y015155D01*
X004981Y015155D01*
X005080Y015253D01*
X005331Y015253D02*
X005429Y015155D01*
X005626Y015155D01*
X005724Y015253D01*
X005331Y015253D02*
X005331Y015647D01*
X005429Y015746D01*
X005626Y015746D01*
X005724Y015647D01*
X005080Y015647D02*
X004981Y015746D01*
X004785Y015746D01*
X004686Y015647D01*
X004042Y015746D02*
X004042Y015352D01*
X004239Y015155D01*
X004126Y013746D02*
X003831Y013746D01*
X003831Y013155D01*
X003831Y013352D02*
X004126Y013352D01*
X004224Y013450D01*
X004224Y013647D01*
X004126Y013746D01*
X004028Y013352D02*
X004224Y013155D01*
X003580Y013155D02*
X003186Y013155D01*
X003186Y013746D01*
X003580Y013746D01*
X003383Y013450D02*
X003186Y013450D01*
X002935Y013352D02*
X002935Y013253D01*
X002837Y013155D01*
X002640Y013155D01*
X002542Y013253D01*
X002640Y013450D02*
X002837Y013450D01*
X002935Y013352D01*
X002935Y013647D02*
X002837Y013746D01*
X002640Y013746D01*
X002542Y013647D01*
X002542Y013549D01*
X002640Y013450D01*
X003542Y012746D02*
X003542Y012155D01*
X003935Y012155D01*
X004140Y009746D02*
X004042Y009647D01*
X004042Y009253D01*
X004140Y009155D01*
X004337Y009155D01*
X004435Y009253D01*
X004435Y009450D01*
X004239Y009450D01*
X004435Y009647D02*
X004337Y009746D01*
X004140Y009746D01*
X004686Y009746D02*
X005080Y009155D01*
X005080Y009746D01*
X005331Y009746D02*
X005626Y009746D01*
X005724Y009647D01*
X005724Y009253D01*
X005626Y009155D01*
X005331Y009155D01*
X005331Y009746D01*
X004686Y009746D02*
X004686Y009155D01*
X004542Y008746D02*
X004542Y008450D01*
X004739Y008549D01*
X004837Y008549D01*
X004935Y008450D01*
X004935Y008253D01*
X004837Y008155D01*
X004640Y008155D01*
X004542Y008253D01*
X004542Y008746D02*
X004935Y008746D01*
X005186Y008746D02*
X005186Y008352D01*
X005383Y008155D01*
X005580Y008352D01*
X005580Y008746D01*
X005542Y005746D02*
X005542Y005352D01*
X005739Y005155D01*
X006186Y005647D02*
X006285Y005746D01*
X006481Y005746D01*
X006580Y005647D01*
D12*
X006607Y011120D02*
X006607Y011980D01*
X006607Y012220D01*
X006607Y013250D01*
X006607Y012220D02*
X006628Y012218D01*
X006648Y012213D01*
X006667Y012204D01*
X006684Y012192D01*
X006699Y012177D01*
X006711Y012160D01*
X006720Y012141D01*
X006725Y012121D01*
X006727Y012100D01*
X006725Y012079D01*
X006720Y012059D01*
X006711Y012040D01*
X006699Y012023D01*
X006684Y012008D01*
X006667Y011996D01*
X006648Y011987D01*
X006628Y011982D01*
X006607Y011980D01*
X014367Y010950D02*
X014367Y013250D01*
D13*
X006453Y010699D02*
X006140Y010385D01*
X006296Y010385D02*
X006296Y010699D01*
X006140Y010699D02*
X006453Y010385D01*
X006453Y010542D02*
X006140Y010542D01*
D14*
X006737Y007600D02*
X006487Y007350D01*
X006487Y006850D01*
X006737Y006600D01*
X007237Y006600D01*
X007487Y006850D01*
X007737Y006600D01*
X008237Y006600D01*
X008487Y006850D01*
X008737Y006600D01*
X009237Y006600D01*
X009487Y006850D01*
X009737Y006600D01*
X010237Y006600D01*
X010487Y006850D01*
X010737Y006600D01*
X011237Y006600D01*
X011487Y006850D01*
X011737Y006600D01*
X012237Y006600D01*
X012487Y006850D01*
X012737Y006600D01*
X013237Y006600D01*
X013487Y006850D01*
X013737Y006600D01*
X014237Y006600D01*
X014487Y006850D01*
X014487Y007350D01*
X014237Y007600D01*
X013737Y007600D01*
X013487Y007350D01*
X013237Y007600D01*
X012737Y007600D01*
X012487Y007350D01*
X012237Y007600D01*
X011737Y007600D01*
X011487Y007350D01*
X011237Y007600D01*
X010737Y007600D01*
X010487Y007350D01*
X010237Y007600D01*
X009737Y007600D01*
X009487Y007350D01*
X009237Y007600D01*
X008737Y007600D01*
X008487Y007350D01*
X008237Y007600D01*
X007737Y007600D01*
X007487Y007350D01*
X007237Y007600D01*
X006737Y007600D01*
X001987Y008350D02*
X001987Y008850D01*
X001737Y009100D01*
X001987Y009350D01*
X001987Y009850D01*
X001737Y010100D01*
X001987Y010350D01*
X001987Y010850D01*
X001737Y011100D01*
X001987Y011350D01*
X001987Y011850D01*
X001737Y012100D01*
X001987Y012350D01*
X001987Y012850D01*
X001737Y013100D01*
X001987Y013350D01*
X001987Y013850D01*
X001737Y014100D01*
X001987Y014350D01*
X001987Y014850D01*
X001737Y015100D01*
X001987Y015350D01*
X001987Y015850D01*
X001737Y016100D01*
X001237Y016100D01*
X000987Y015850D01*
X000987Y015350D01*
X001237Y015100D01*
X000987Y014850D01*
X000987Y014350D01*
X001237Y014100D01*
X000987Y013850D01*
X000987Y013350D01*
X001237Y013100D01*
X000987Y012850D01*
X000987Y012350D01*
X001237Y012100D01*
X000987Y011850D01*
X000987Y011350D01*
X001237Y011100D01*
X000987Y010850D01*
X000987Y010350D01*
X001237Y010100D01*
X000987Y009850D01*
X000987Y009350D01*
X001237Y009100D01*
X000987Y008850D01*
X000987Y008350D01*
X001237Y008100D01*
X001737Y008100D01*
X001987Y008350D01*
X007987Y003700D02*
X007987Y003600D01*
X008287Y003600D01*
X008287Y001600D01*
X007987Y001600D01*
X007987Y001500D01*
X007987Y001600D02*
X007687Y001600D01*
X007687Y003600D01*
X007987Y003600D01*
X008687Y003600D02*
X008987Y003600D01*
X008987Y003700D01*
X008987Y003600D02*
X009287Y003600D01*
X009287Y001600D01*
X008987Y001600D01*
X008987Y001500D01*
X008987Y001600D02*
X008687Y001600D01*
X008687Y003600D01*
X009687Y003600D02*
X009987Y003600D01*
X009987Y003700D01*
X009987Y003600D02*
X010287Y003600D01*
X010287Y001600D01*
X009987Y001600D01*
X009987Y001500D01*
X009987Y001600D02*
X009687Y001600D01*
X009687Y003600D01*
X010687Y003600D02*
X010987Y003600D01*
X010987Y003700D01*
X010987Y003600D02*
X011287Y003600D01*
X011287Y001600D01*
X010987Y001600D01*
X010987Y001500D01*
X010987Y001600D02*
X010687Y001600D01*
X010687Y003600D01*
X011687Y003600D02*
X011987Y003600D01*
X011987Y003700D01*
X011987Y003600D02*
X012287Y003600D01*
X012287Y001600D01*
X011987Y001600D01*
X011987Y001500D01*
X011987Y001600D02*
X011687Y001600D01*
X011687Y003600D01*
X012687Y003600D02*
X012987Y003600D01*
X012987Y003700D01*
X012987Y003600D02*
X013287Y003600D01*
X013287Y001600D01*
X012987Y001600D01*
X012987Y001500D01*
X012987Y001600D02*
X012687Y001600D01*
X012687Y003600D01*
X013687Y003600D02*
X013987Y003600D01*
X013987Y003700D01*
X013987Y003600D02*
X014287Y003600D01*
X014287Y001600D01*
X013987Y001600D01*
X013987Y001500D01*
X013987Y001600D02*
X013687Y001600D01*
X013687Y003600D01*
X018487Y008100D02*
X019487Y008100D01*
X019487Y010100D01*
X018487Y010100D01*
X018487Y008100D01*
X018737Y009100D02*
X019237Y009100D01*
X020487Y008850D02*
X020487Y008350D01*
X020737Y008100D01*
X021237Y008100D01*
X021487Y008350D01*
X021487Y008850D01*
X021237Y009100D01*
X021487Y009350D01*
X021487Y009850D01*
X021237Y010100D01*
X021487Y010350D01*
X021487Y010850D01*
X021237Y011100D01*
X021487Y011350D01*
X021487Y011850D01*
X021237Y012100D01*
X021487Y012350D01*
X021487Y012850D01*
X021237Y013100D01*
X021487Y013350D01*
X021487Y013850D01*
X021237Y014100D01*
X021487Y014350D01*
X021487Y014850D01*
X021237Y015100D01*
X021487Y015350D01*
X021487Y015850D01*
X021237Y016100D01*
X020737Y016100D01*
X020487Y015850D01*
X020487Y015350D01*
X020737Y015100D01*
X020487Y014850D01*
X020487Y014350D01*
X020737Y014100D01*
X020487Y013850D01*
X020487Y013350D01*
X020737Y013100D01*
X020487Y012850D01*
X020487Y012350D01*
X020737Y012100D01*
X020487Y011850D01*
X020487Y011350D01*
X020737Y011100D01*
X020487Y010850D01*
X020487Y010350D01*
X020737Y010100D01*
X020487Y009850D01*
X020487Y009350D01*
X020737Y009100D01*
X020487Y008850D01*
X019487Y014100D02*
X018487Y014100D01*
X018487Y016100D01*
X019487Y016100D01*
X019487Y014100D01*
X019237Y015100D02*
X018737Y015100D01*
M02*
