G75*
G70*
%OFA0B0*%
%FSLAX24Y24*%
%IPPOS*%
%LPD*%
%AMOC8*
5,1,8,0,0,1.08239X$1,22.5*
%
%ADD10R,0.0680X0.0680*%
%ADD11C,0.0680*%
%ADD12C,0.0740*%
%ADD13R,0.0740X0.0740*%
%ADD14C,0.0650*%
%ADD15C,0.0200*%
%ADD16C,0.0300*%
%ADD17C,0.0436*%
%ADD18C,0.0160*%
%ADD19C,0.0100*%
D10*
X006987Y010600D03*
D11*
X007987Y010600D03*
X008987Y010600D03*
X009987Y010600D03*
X010987Y010600D03*
X011987Y010600D03*
X012987Y010600D03*
X013987Y010600D03*
X013987Y013600D03*
X012987Y013600D03*
X011987Y013600D03*
X010987Y013600D03*
X009987Y013600D03*
X008987Y013600D03*
X007987Y013600D03*
X006987Y013600D03*
D12*
X007987Y001100D03*
X008987Y001100D03*
X009987Y001100D03*
X010987Y001100D03*
X011987Y001100D03*
X012987Y001100D03*
X013987Y001100D03*
X013987Y004100D03*
X012987Y004100D03*
X011987Y004100D03*
X010987Y004100D03*
X009987Y004100D03*
X008987Y004100D03*
X007987Y004100D03*
X007987Y007100D03*
X008987Y007100D03*
X009987Y007100D03*
X010987Y007100D03*
X011987Y007100D03*
X012987Y007100D03*
X013987Y007100D03*
X020987Y009600D03*
X020987Y010600D03*
X020987Y011600D03*
X020987Y012600D03*
X020987Y013600D03*
X020987Y014600D03*
X020987Y015600D03*
X001487Y015600D03*
X001487Y014600D03*
X001487Y013600D03*
X001487Y012600D03*
X001487Y011600D03*
X001487Y010600D03*
X001487Y009600D03*
D13*
X001487Y008600D03*
X006987Y007100D03*
X020987Y008600D03*
D14*
X018987Y008600D03*
X018987Y009600D03*
X018987Y014600D03*
X018987Y015600D03*
D15*
X018987Y014600D02*
X020987Y014600D01*
D16*
X020987Y008600D02*
X018987Y008600D01*
X008987Y008600D01*
X006987Y010600D01*
X003487Y010600D01*
X001487Y008600D01*
D17*
X012987Y012100D03*
X014987Y012600D03*
D18*
X020987Y012600D01*
X020987Y011600D02*
X019987Y011600D01*
X019487Y012100D01*
X012987Y012100D01*
X009487Y012100D01*
X008987Y011600D01*
X001487Y011600D01*
X001487Y012600D02*
X014987Y012600D01*
D19*
X011987Y013600D02*
X011487Y014100D01*
X001987Y014100D01*
X001487Y013600D01*
X008987Y010600D02*
X009987Y011600D01*
X018487Y011600D01*
X018987Y011100D01*
X021487Y011100D01*
X021487Y013600D01*
X020987Y013600D01*
M02*
