%
M48
M72
T01C0.0236
T02C0.0276
T03C0.0354
T04C0.0400
T05C0.0440
%
T01
X12987Y12100
X14987Y12600
T02
X18987Y14600
X18987Y15600
X18987Y9600
X18987Y8600
T03
X7987Y1100
X8987Y1100
X9987Y1100
X10987Y1100
X11987Y1100
X12987Y1100
X13987Y1100
X13987Y4100
X12987Y4100
X11987Y4100
X10987Y4100
X9987Y4100
X8987Y4100
X7987Y4100
T04
X7987Y7100
X8987Y7100
X9987Y7100
X10987Y7100
X11987Y7100
X12987Y7100
X13987Y7100
X6987Y7100
X1487Y8600
X1487Y9600
X1487Y10600
X1487Y11600
X1487Y12600
X1487Y13600
X1487Y14600
X1487Y15600
X20987Y15600
X20987Y14600
X20987Y13600
X20987Y12600
X20987Y11600
X20987Y10600
X20987Y9600
X20987Y8600
T05
X13987Y10600
X12987Y10600
X11987Y10600
X10987Y10600
X9987Y10600
X8987Y10600
X7987Y10600
X6987Y10600
X6987Y13600
X7987Y13600
X8987Y13600
X9987Y13600
X10987Y13600
X11987Y13600
X12987Y13600
X13987Y13600
M30
